<svg width="399" height="52" viewBox="0 0 399 52" fill="none" xmlns="http://www.w3.org/2000/svg">
<path d="M0 52V0H14.0273V52H0ZM20.9296 51.963V0H28.0547V51.963H20.9296ZM42.082 51.963V0H48.9843V51.963H42.082ZM77.039 51.963V0H83.9412V51.963H77.039ZM105.094 51.963V0H118.898V51.963H105.094ZM140.051 51.963V0H146.953V51.963H140.051ZM154.078 51.963V0H160.98V51.963H154.078ZM168.105 51.963V0H175.007V51.963H168.105ZM195.938 51.963V0H209.965V51.963H195.938ZM230.895 51.963V0H244.922V51.963H230.895ZM258.949 51.963V0H272.977V51.963H258.949ZM287.004 51.963V0H301.032V51.963H287.004ZM307.934 51.963V0H321.961V51.963H307.934ZM343.114 51.963V0H364.043V51.963H343.114ZM370.945 51.963V0H378.07V51.963H370.945ZM384.973 52V0H399V52H384.973Z" fill="white"/>
</svg>
