<svg width="269" height="269" viewBox="0 0 269 269" fill="none" xmlns="http://www.w3.org/2000/svg">
<path d="M190.542 134.5C215.302 134.5 235.375 114.427 235.375 89.6667C235.375 64.9059 215.302 44.8334 190.542 44.8334C165.781 44.8334 145.708 64.9059 145.708 89.6667C145.708 114.427 165.781 134.5 190.542 134.5Z" stroke="#160F29" stroke-width="15"/>
<path d="M134.5 224.167C153.071 224.167 168.125 209.112 168.125 190.542C168.125 171.971 153.071 156.917 134.5 156.917C115.929 156.917 100.875 171.971 100.875 190.542C100.875 209.112 115.929 224.167 134.5 224.167Z" stroke="#160F29" stroke-width="15"/>
<path d="M72.8541 134.5C88.3296 134.5 100.875 121.955 100.875 106.479C100.875 91.0037 88.3296 78.4584 72.8541 78.4584C57.3786 78.4584 44.8333 91.0037 44.8333 106.479C44.8333 121.955 57.3786 134.5 72.8541 134.5Z" stroke="#160F29" stroke-width="15"/>
</svg>
