<svg width="310" height="500" viewBox="0 0 310 500" fill="none" xmlns="http://www.w3.org/2000/svg">
<rect width="310" height="500" fill="#F3F0F9"/>
<path d="M280 30H30L30.3472 470H280V30Z" stroke="black" stroke-width="2"/>
<g clip-path="url(#clip0_316_554)">
<path d="M89.6545 393H93.3247C93.3713 393.111 93.4743 393.082 93.5601 393.091C94.55 393.184 95.5335 393.335 96.5056 393.544C108.822 396.152 117.016 408.434 114.572 420.776C113.044 428.468 108.655 434.059 101.656 437.601C101.403 437.724 101.165 437.914 100.853 437.899C100.685 437.378 100.528 436.852 100.345 436.336C98.0077 429.734 98.0016 423.142 100.515 416.595C101.335 414.462 102.355 412.407 103.261 410.307C104.227 408.07 102.929 405.626 100.547 405.195C100.268 405.145 100.205 405.041 100.209 404.784C100.222 403.96 100.219 403.135 100.209 402.311C100.191 400.741 99.6459 399.222 98.6613 397.998C97.6766 396.774 96.3092 395.915 94.7778 395.559C93.2376 395.21 91.6717 395.412 90.118 395.384C86.5288 395.116 82.9726 398.001 82.7838 401.985C82.7408 402.898 82.7654 403.815 82.7838 404.731C82.7838 405.008 82.7139 405.133 82.4257 405.187C81.8749 405.281 81.353 405.501 80.9001 405.828C80.4472 406.155 80.0752 406.581 79.8127 407.073C79.5502 407.566 79.4041 408.112 79.3856 408.67C79.367 409.228 79.4766 409.783 79.7059 410.291C80.303 411.674 80.9088 413.054 81.5452 414.415C83.1627 417.855 84.1204 421.461 84.3154 425.257C84.4797 428.412 84.0951 431.571 83.1786 434.595C82.8438 435.697 82.4809 436.791 82.1302 437.889C81.9634 437.936 81.8322 437.836 81.6997 437.767C74.1779 434.08 69.6616 428.141 68.2526 419.873C68.168 419.371 68.2036 418.849 68 418.368V414.53C68.1116 414.485 68.0858 414.382 68.0956 414.297C68.1803 413.492 68.2943 412.694 68.4464 411.898C70.2784 402.29 78.2883 394.659 88.0088 393.255C88.557 393.176 89.1235 393.195 89.6545 393Z" fill="#B65C34"/>
<path d="M90.113 395.38C91.6679 395.408 93.2339 395.206 94.7728 395.555C96.3042 395.912 97.6716 396.77 98.6563 397.994C99.641 399.218 100.186 400.737 100.204 402.307C100.211 403.131 100.215 403.956 100.204 404.78C100.204 405.037 100.263 405.141 100.542 405.192C102.924 405.623 104.221 408.067 103.256 410.304C102.35 412.404 101.33 414.458 100.51 416.591C97.9967 423.138 98.0028 429.731 100.34 436.333C100.523 436.848 100.68 437.375 100.848 437.895C100.55 438.276 100.071 438.269 99.6742 438.42C97.6302 439.21 95.4765 439.68 93.289 439.814C93.126 439.824 92.9432 439.788 92.8672 439.996H92.4086C91.8045 439.848 91.1733 439.848 90.5692 439.996H90.1106C90.0915 439.938 90.0528 439.889 90.0012 439.856C89.9495 439.823 89.8881 439.809 89.8273 439.816C88.9604 439.822 88.1167 439.629 87.262 439.535C87.4214 438.422 87.5686 437.306 87.7427 436.196C88.2234 433.163 88.4612 430.096 88.4539 427.026C88.4539 425.931 88.5091 424.837 88.3865 423.741C88.3337 423.273 88.2565 422.771 88.4723 422.304C89.3197 422.457 90.1486 422.724 91.0254 422.672C92.1843 422.741 93.3464 422.607 94.4589 422.275C96.8133 421.606 97.9709 419.743 97.592 417.332C97.2462 415.137 96.9531 412.933 96.6367 410.733C97.305 410.662 97.7661 410.326 98.0003 409.688C98.3179 408.825 97.6423 407.551 96.2529 407.743C96.0665 407.366 96.1094 406.944 96.0175 406.547C95.8286 405.734 95.1088 405.432 94.4233 405.903C93.944 406.255 93.3977 406.505 92.8182 406.638C91.8029 406.846 90.7528 406.814 89.7525 406.542C89.3153 406.331 88.89 406.097 88.4784 405.839C87.8653 405.45 87.1492 405.765 86.9812 406.468C86.9074 406.779 86.8561 407.095 86.8279 407.414C86.8046 407.674 86.7053 407.773 86.4465 407.707C86.5385 406.908 86.7372 406.148 87.2448 405.503C87.6703 404.959 87.7893 404.319 87.815 403.656C87.8359 403.108 87.8236 402.554 87.815 402.008C87.7966 400.587 88.035 399.175 88.5189 397.839C88.8292 396.993 89.1921 396.163 89.9757 395.615C90.0456 395.566 90.0701 395.461 90.113 395.38ZM99.1873 405.904C100.116 405.064 100.134 403.428 99.2254 402.598C98.7287 402.159 98.1573 402.204 97.7109 402.721C97.0402 403.49 97.0365 404.953 97.7036 405.732C98.1315 406.23 98.6552 406.291 99.1923 405.91L99.1873 405.904Z" fill="#FEF8F0"/>
<path d="M90.5718 440C91.1759 439.851 91.8071 439.851 92.4112 440H90.5718Z" fill="#FEFEFD"/>
<path d="M87.2645 439.538C85.6325 439.239 84.0371 438.767 82.5054 438.13C82.3669 438.074 82.205 438.052 82.1302 437.894C82.4809 436.792 82.8439 435.702 83.1786 434.6C84.0957 431.575 84.4803 428.413 84.3154 425.257C84.1253 421.461 83.1627 417.85 81.5404 414.411C80.899 413.049 80.2933 411.669 79.701 410.287C79.4717 409.778 79.3622 409.223 79.3807 408.665C79.3992 408.107 79.5453 407.561 79.8078 407.069C80.0703 406.576 80.4423 406.15 80.8952 405.823C81.3481 405.496 81.87 405.276 82.4208 405.182C82.709 405.128 82.7887 405.003 82.7789 404.726C82.7654 403.811 82.7409 402.89 82.7789 401.98C82.9677 397.996 86.5239 395.111 90.1131 395.379C90.0702 395.456 90.0457 395.562 89.9795 395.608C89.1959 396.155 88.8329 396.986 88.5227 397.832C88.0388 399.168 87.8003 400.58 87.8188 402.001C87.8188 402.549 87.8347 403.103 87.8188 403.649C87.793 404.311 87.6741 404.952 87.2486 405.495C86.7409 406.143 86.5423 406.903 86.4503 407.699C86.4196 407.705 86.3902 407.714 86.3608 407.719C85.5024 407.832 84.9739 408.341 84.9052 409.105C84.8402 409.824 85.2731 410.425 86.0922 410.675C86.3522 410.754 86.3277 410.883 86.2982 411.08C85.9843 413.191 85.6974 415.306 85.3601 417.413C85.1468 418.746 85.4264 419.919 86.2897 420.955C86.8684 421.649 87.6532 422.009 88.4797 422.302C88.2639 422.769 88.3412 423.271 88.3939 423.738C88.5165 424.84 88.4577 425.929 88.4614 427.023C88.4686 430.094 88.2308 433.16 87.7501 436.193C87.5711 437.31 87.4239 438.425 87.2645 439.538ZM85.0941 402.611C84.6367 402.2 84.1229 402.204 83.674 402.62C82.8672 403.37 82.8794 405.13 83.6949 405.864C84.1621 406.283 84.6391 406.275 85.1112 405.842C85.9855 405.022 85.9757 403.408 85.0941 402.611Z" fill="#F6E9DB"/>
<path d="M96.6416 410.732C96.958 412.936 97.2547 415.14 97.5969 417.331C97.9758 419.742 96.8182 421.605 94.4638 422.274C93.3513 422.606 92.1892 422.74 91.0303 422.671C89.842 422.161 89.4705 421.127 89.2841 419.969C89.1373 419.038 89.104 418.093 89.1847 417.153C89.2975 415.744 89.3159 414.327 89.392 412.916C89.5048 410.79 89.6372 408.665 89.7537 406.54C90.754 406.811 91.8041 406.844 92.8194 406.635C93.3989 406.502 93.9452 406.252 94.4245 405.901C95.1125 405.429 95.8323 405.732 96.0187 406.545C96.1106 406.941 96.0677 407.364 96.2541 407.741C96.2848 408.751 96.5055 409.737 96.6416 410.732ZM95.809 412.39C95.7808 412.008 95.7918 411.583 95.381 411.444C94.9322 411.293 94.6845 411.663 94.476 411.98C94.1142 412.517 93.9636 413.168 94.053 413.809C94.0885 414.074 94.1756 414.327 94.4625 414.422C94.7495 414.516 94.9359 414.349 95.1076 414.169C95.5858 413.664 95.7697 413.047 95.809 412.39Z" fill="#F4CE33"/>
<path d="M89.7515 406.542C89.6288 408.668 89.5062 410.792 89.3897 412.918C89.3137 414.33 89.2953 415.746 89.1825 417.156C89.1017 418.095 89.1351 419.041 89.2818 419.972C89.4682 421.129 89.8398 422.164 91.028 422.673C90.1512 422.731 89.3223 422.464 88.4749 422.306C87.6484 422.014 86.8636 421.654 86.2848 420.959C85.4265 419.923 85.142 418.755 85.3553 417.416C85.6926 415.309 85.9795 413.195 86.2934 411.084C86.3229 410.887 86.3474 410.758 86.0874 410.678C85.272 410.434 84.8354 409.827 84.9004 409.109C84.9691 408.345 85.5037 407.835 86.356 407.723C86.3854 407.723 86.4148 407.709 86.4455 407.703C86.6993 407.769 86.8035 407.67 86.8268 407.41C86.8551 407.092 86.9063 406.775 86.9801 406.464C87.1481 405.761 87.8679 405.446 88.4774 405.836C88.8888 406.094 89.3142 406.33 89.7515 406.542ZM88.9887 413.722C88.9262 412.988 88.7594 412.336 88.2223 411.84C87.8054 411.455 87.4277 411.569 87.2622 412.105C87.0463 412.804 87.3934 413.973 87.9587 414.448C88.3781 414.801 88.7766 414.676 88.9176 414.142C88.9488 414.004 88.9726 413.864 88.9887 413.722Z" fill="#F1B633"/>
<path d="M99.1922 405.91C98.6551 406.294 98.1315 406.232 97.7085 405.738C97.0414 404.959 97.0451 403.496 97.7158 402.727C98.1622 402.215 98.7336 402.17 99.2303 402.604C99.1487 402.671 99.0729 402.745 99.0034 402.824C98.3449 403.706 98.4209 404.894 99.1922 405.91Z" fill="#3B4C4B"/>
<path d="M96.6416 410.732C96.5055 409.737 96.2848 408.751 96.2603 407.747C97.6496 407.555 98.3253 408.828 98.0077 409.692C97.771 410.325 97.3099 410.661 96.6416 410.732Z" fill="#F1B634"/>
<path d="M99.1923 405.91C98.421 404.897 98.3462 403.713 99.0035 402.829C99.0729 402.749 99.1488 402.676 99.2303 402.609C100.139 403.432 100.121 405.068 99.1923 405.91Z" fill="#536767"/>
<path d="M85.1111 405.842C84.639 406.275 84.162 406.283 83.6948 405.864C82.8793 405.129 82.8671 403.37 83.6739 402.62C84.1228 402.204 84.6366 402.2 85.094 402.611C84.7028 402.887 84.5532 403.313 84.4808 403.742C84.3398 404.533 84.433 405.284 85.1111 405.842Z" fill="#3B4C4A"/>
<path d="M85.1113 405.842C84.4332 405.284 84.34 404.533 84.4785 403.742C84.5533 403.313 84.7029 402.885 85.0917 402.611C85.9758 403.408 85.9856 405.022 85.1113 405.842Z" fill="#536767"/>
<path d="M95.8091 412.39C95.7686 413.047 95.5859 413.664 95.1126 414.164C94.9409 414.344 94.7361 414.501 94.4676 414.417C94.199 414.332 94.0936 414.074 94.058 413.804C93.9672 413.164 94.116 412.513 94.4761 411.975C94.6846 411.658 94.9323 411.288 95.3811 411.439C95.7919 411.583 95.7809 412.008 95.8091 412.39Z" fill="#546865"/>
<path d="M88.9886 413.722C88.9724 413.864 88.9487 414.004 88.9175 414.142C88.7764 414.676 88.3779 414.801 87.9585 414.448C87.3932 413.973 87.0462 412.804 87.262 412.105C87.4275 411.569 87.8052 411.455 88.2222 411.84C88.7593 412.336 88.926 412.994 88.9886 413.722Z" fill="#546764"/>
</g>
<path d="M142.842 424L139.404 412.799H139.316C139.329 413.066 139.349 413.469 139.375 414.01C139.408 414.544 139.437 415.113 139.463 415.719C139.489 416.324 139.502 416.871 139.502 417.359V424H136.797V409.723H140.918L144.297 420.641H144.355L147.939 409.723H152.061V424H149.238V417.242C149.238 416.793 149.245 416.275 149.258 415.689C149.277 415.104 149.3 414.547 149.326 414.02C149.352 413.486 149.372 413.085 149.385 412.818H149.297L145.615 424H142.842ZM168.623 416.842C168.623 417.942 168.486 418.945 168.213 419.85C167.939 420.748 167.523 421.523 166.963 422.174C166.41 422.825 165.706 423.326 164.854 423.678C164.001 424.023 162.992 424.195 161.826 424.195C160.661 424.195 159.652 424.023 158.799 423.678C157.946 423.326 157.24 422.825 156.68 422.174C156.126 421.523 155.713 420.745 155.439 419.84C155.166 418.935 155.029 417.929 155.029 416.822C155.029 415.344 155.27 414.059 155.752 412.965C156.24 411.865 156.989 411.012 157.998 410.406C159.007 409.801 160.29 409.498 161.846 409.498C163.395 409.498 164.668 409.801 165.664 410.406C166.667 411.012 167.409 411.865 167.891 412.965C168.379 414.065 168.623 415.357 168.623 416.842ZM158.203 416.842C158.203 417.838 158.327 418.697 158.574 419.42C158.828 420.136 159.222 420.689 159.756 421.08C160.29 421.464 160.98 421.656 161.826 421.656C162.686 421.656 163.382 421.464 163.916 421.08C164.45 420.689 164.837 420.136 165.078 419.42C165.326 418.697 165.449 417.838 165.449 416.842C165.449 415.344 165.169 414.166 164.609 413.307C164.049 412.447 163.128 412.018 161.846 412.018C160.993 412.018 160.296 412.213 159.756 412.604C159.222 412.988 158.828 413.541 158.574 414.264C158.327 414.98 158.203 415.839 158.203 416.842ZM184.541 416.842C184.541 417.942 184.404 418.945 184.131 419.85C183.857 420.748 183.441 421.523 182.881 422.174C182.327 422.825 181.624 423.326 180.771 423.678C179.919 424.023 178.91 424.195 177.744 424.195C176.579 424.195 175.57 424.023 174.717 423.678C173.864 423.326 173.158 422.825 172.598 422.174C172.044 421.523 171.631 420.745 171.357 419.84C171.084 418.935 170.947 417.929 170.947 416.822C170.947 415.344 171.188 414.059 171.67 412.965C172.158 411.865 172.907 411.012 173.916 410.406C174.925 409.801 176.208 409.498 177.764 409.498C179.313 409.498 180.586 409.801 181.582 410.406C182.585 411.012 183.327 411.865 183.809 412.965C184.297 414.065 184.541 415.357 184.541 416.842ZM174.121 416.842C174.121 417.838 174.245 418.697 174.492 419.42C174.746 420.136 175.14 420.689 175.674 421.08C176.208 421.464 176.898 421.656 177.744 421.656C178.604 421.656 179.3 421.464 179.834 421.08C180.368 420.689 180.755 420.136 180.996 419.42C181.243 418.697 181.367 417.838 181.367 416.842C181.367 415.344 181.087 414.166 180.527 413.307C179.967 412.447 179.046 412.018 177.764 412.018C176.911 412.018 176.214 412.213 175.674 412.604C175.14 412.988 174.746 413.541 174.492 414.264C174.245 414.98 174.121 415.839 174.121 416.842ZM199.346 416.725C199.346 418.333 199.036 419.677 198.418 420.758C197.806 421.832 196.917 422.643 195.752 423.189C194.587 423.73 193.184 424 191.543 424H187.5V409.723H191.982C193.48 409.723 194.779 409.99 195.879 410.523C196.979 411.051 197.832 411.835 198.438 412.877C199.043 413.912 199.346 415.195 199.346 416.725ZM196.201 416.803C196.201 415.748 196.045 414.882 195.732 414.205C195.426 413.521 194.971 413.017 194.365 412.691C193.766 412.366 193.024 412.203 192.139 412.203H190.527V421.5H191.826C193.304 421.5 194.401 421.106 195.117 420.318C195.84 419.531 196.201 418.359 196.201 416.803ZM213.926 409.723V418.961C213.926 419.944 213.708 420.833 213.271 421.627C212.842 422.415 212.188 423.04 211.309 423.502C210.436 423.964 209.336 424.195 208.008 424.195C206.12 424.195 204.681 423.714 203.691 422.75C202.702 421.786 202.207 420.51 202.207 418.922V409.723H205.225V418.463C205.225 419.641 205.465 420.468 205.947 420.943C206.429 421.419 207.142 421.656 208.086 421.656C208.75 421.656 209.287 421.542 209.697 421.314C210.114 421.087 210.42 420.735 210.615 420.26C210.811 419.785 210.908 419.179 210.908 418.443V409.723H213.926ZM223.486 412.037C222.907 412.037 222.393 412.151 221.943 412.379C221.501 412.6 221.126 412.923 220.82 413.346C220.521 413.769 220.293 414.28 220.137 414.879C219.98 415.478 219.902 416.152 219.902 416.9C219.902 417.91 220.026 418.772 220.273 419.488C220.527 420.198 220.918 420.742 221.445 421.119C221.973 421.49 222.653 421.676 223.486 421.676C224.066 421.676 224.645 421.611 225.225 421.48C225.811 421.35 226.445 421.165 227.129 420.924V423.463C226.497 423.723 225.876 423.909 225.264 424.02C224.652 424.137 223.965 424.195 223.203 424.195C221.732 424.195 220.521 423.893 219.57 423.287C218.626 422.675 217.926 421.822 217.471 420.729C217.015 419.628 216.787 418.346 216.787 416.881C216.787 415.8 216.934 414.811 217.227 413.912C217.52 413.014 217.949 412.236 218.516 411.578C219.082 410.921 219.782 410.413 220.615 410.055C221.449 409.697 222.406 409.518 223.486 409.518C224.196 409.518 224.906 409.609 225.615 409.791C226.331 409.967 227.015 410.211 227.666 410.523L226.689 412.984C226.156 412.73 225.618 412.509 225.078 412.32C224.538 412.132 224.007 412.037 223.486 412.037ZM241.66 424H238.223L234.482 417.984L233.203 418.902V424H230.176V409.723H233.203V416.256C233.405 415.976 233.604 415.696 233.799 415.416C233.994 415.136 234.193 414.856 234.395 414.576L238.262 409.723H241.621L236.641 416.041L241.66 424Z" fill="#160F29"/>
<path d="M109.332 133.41C109.332 134.73 109.168 135.934 108.84 137.02C108.512 138.098 108.012 139.027 107.34 139.809C106.676 140.59 105.832 141.191 104.809 141.613C103.785 142.027 102.574 142.234 101.176 142.234C99.7773 142.234 98.5664 142.027 97.543 141.613C96.5195 141.191 95.6719 140.59 95 139.809C94.3359 139.027 93.8398 138.094 93.5117 137.008C93.1836 135.922 93.0195 134.715 93.0195 133.387C93.0195 131.613 93.3086 130.07 93.8867 128.758C94.4727 127.438 95.3711 126.414 96.582 125.688C97.793 124.961 99.332 124.598 101.199 124.598C103.059 124.598 104.586 124.961 105.781 125.688C106.984 126.414 107.875 127.438 108.453 128.758C109.039 130.078 109.332 131.629 109.332 133.41ZM96.8281 133.41C96.8281 134.605 96.9766 135.637 97.2734 136.504C97.5781 137.363 98.0508 138.027 98.6914 138.496C99.332 138.957 100.16 139.188 101.176 139.188C102.207 139.188 103.043 138.957 103.684 138.496C104.324 138.027 104.789 137.363 105.078 136.504C105.375 135.637 105.523 134.605 105.523 133.41C105.523 131.613 105.188 130.199 104.516 129.168C103.844 128.137 102.738 127.621 101.199 127.621C100.176 127.621 99.3398 127.855 98.6914 128.324C98.0508 128.785 97.5781 129.449 97.2734 130.316C96.9766 131.176 96.8281 132.207 96.8281 133.41ZM112.883 142V124.867H123.711V127.867H116.516V131.441H117.945C119.555 131.441 120.875 131.664 121.906 132.109C122.945 132.555 123.711 133.172 124.203 133.961C124.703 134.742 124.953 135.637 124.953 136.645C124.953 138.34 124.387 139.656 123.254 140.594C122.129 141.531 120.336 142 117.875 142H112.883ZM116.516 139.023H117.734C118.836 139.023 119.703 138.848 120.336 138.496C120.969 138.137 121.285 137.52 121.285 136.645C121.285 136.035 121.129 135.57 120.816 135.25C120.512 134.93 120.07 134.711 119.492 134.594C118.922 134.477 118.238 134.418 117.441 134.418H116.516V139.023ZM141.77 142H138.148V127.891H133.953C133.859 128.625 133.758 129.426 133.648 130.293C133.539 131.16 133.426 132.035 133.309 132.918C133.191 133.801 133.066 134.641 132.934 135.438C132.809 136.234 132.684 136.934 132.559 137.535C132.355 138.535 132.078 139.387 131.727 140.09C131.383 140.785 130.91 141.316 130.309 141.684C129.715 142.051 128.938 142.234 127.977 142.234C127.656 142.234 127.348 142.211 127.051 142.164C126.762 142.117 126.492 142.055 126.242 141.977V139C126.445 139.07 126.648 139.129 126.852 139.176C127.055 139.215 127.277 139.234 127.52 139.234C127.832 139.234 128.09 139.133 128.293 138.93C128.504 138.719 128.691 138.363 128.855 137.863C129.02 137.355 129.184 136.656 129.348 135.766C129.418 135.375 129.512 134.824 129.629 134.113C129.746 133.395 129.879 132.555 130.027 131.594C130.176 130.625 130.328 129.57 130.484 128.43C130.648 127.289 130.805 126.102 130.953 124.867H141.77V142ZM161.645 133.41C161.645 134.73 161.48 135.934 161.152 137.02C160.824 138.098 160.324 139.027 159.652 139.809C158.988 140.59 158.145 141.191 157.121 141.613C156.098 142.027 154.887 142.234 153.488 142.234C152.09 142.234 150.879 142.027 149.855 141.613C148.832 141.191 147.984 140.59 147.312 139.809C146.648 139.027 146.152 138.094 145.824 137.008C145.496 135.922 145.332 134.715 145.332 133.387C145.332 131.613 145.621 130.07 146.199 128.758C146.785 127.438 147.684 126.414 148.895 125.688C150.105 124.961 151.645 124.598 153.512 124.598C155.371 124.598 156.898 124.961 158.094 125.688C159.297 126.414 160.188 127.438 160.766 128.758C161.352 130.078 161.645 131.629 161.645 133.41ZM149.141 133.41C149.141 134.605 149.289 135.637 149.586 136.504C149.891 137.363 150.363 138.027 151.004 138.496C151.645 138.957 152.473 139.188 153.488 139.188C154.52 139.188 155.355 138.957 155.996 138.496C156.637 138.027 157.102 137.363 157.391 136.504C157.688 135.637 157.836 134.605 157.836 133.41C157.836 131.613 157.5 130.199 156.828 129.168C156.156 128.137 155.051 127.621 153.512 127.621C152.488 127.621 151.652 127.855 151.004 128.324C150.363 128.785 149.891 129.449 149.586 130.316C149.289 131.176 149.141 132.207 149.141 133.41ZM169.133 133.094L163.379 124.867H167.117L172.66 133.164V124.867H176.047V133.164L181.59 124.867H185.34L179.574 133.094L185.668 142H181.777L176.047 133.316V142H172.66V133.316L166.93 142H163.039L169.133 133.094ZM201.805 142H197.68L191.469 133.316V142H187.836V124.867H191.469V133.164L197.609 124.867H201.477L195.23 133.094L201.805 142ZM214.449 142L213.207 137.922H206.961L205.719 142H201.805L207.852 124.797H212.293L218.363 142H214.449ZM212.34 134.875L211.098 130.891C211.02 130.625 210.914 130.285 210.781 129.871C210.656 129.449 210.527 129.023 210.395 128.594C210.27 128.156 210.168 127.777 210.09 127.457C210.012 127.777 209.902 128.176 209.762 128.652C209.629 129.121 209.5 129.566 209.375 129.988C209.25 130.41 209.16 130.711 209.105 130.891L207.875 134.875H212.34ZM89.3516 166.41C89.3516 167.73 89.1875 168.934 88.8594 170.02C88.5312 171.098 88.0312 172.027 87.3594 172.809C86.6953 173.59 85.8516 174.191 84.8281 174.613C83.8047 175.027 82.5938 175.234 81.1953 175.234C79.7969 175.234 78.5859 175.027 77.5625 174.613C76.5391 174.191 75.6914 173.59 75.0195 172.809C74.3555 172.027 73.8594 171.094 73.5312 170.008C73.2031 168.922 73.0391 167.715 73.0391 166.387C73.0391 164.613 73.3281 163.07 73.9062 161.758C74.4922 160.438 75.3906 159.414 76.6016 158.688C77.8125 157.961 79.3516 157.598 81.2188 157.598C83.0781 157.598 84.6055 157.961 85.8008 158.688C87.0039 159.414 87.8945 160.438 88.4727 161.758C89.0586 163.078 89.3516 164.629 89.3516 166.41ZM76.8477 166.41C76.8477 167.605 76.9961 168.637 77.293 169.504C77.5977 170.363 78.0703 171.027 78.7109 171.496C79.3516 171.957 80.1797 172.188 81.1953 172.188C82.2266 172.188 83.0625 171.957 83.7031 171.496C84.3438 171.027 84.8086 170.363 85.0977 169.504C85.3945 168.637 85.543 167.605 85.543 166.41C85.543 164.613 85.207 163.199 84.5352 162.168C83.8633 161.137 82.7578 160.621 81.2188 160.621C80.1953 160.621 79.3594 160.855 78.7109 161.324C78.0703 161.785 77.5977 162.449 77.293 163.316C76.9961 164.176 76.8477 165.207 76.8477 166.41ZM99.5117 175H95.8789V160.891H91.2266V157.867H104.164V160.891H99.5117V175ZM114.078 160.645C113.383 160.645 112.766 160.781 112.227 161.055C111.695 161.32 111.246 161.707 110.879 162.215C110.52 162.723 110.246 163.336 110.059 164.055C109.871 164.773 109.777 165.582 109.777 166.48C109.777 167.691 109.926 168.727 110.223 169.586C110.527 170.438 110.996 171.09 111.629 171.543C112.262 171.988 113.078 172.211 114.078 172.211C114.773 172.211 115.469 172.133 116.164 171.977C116.867 171.82 117.629 171.598 118.449 171.309V174.355C117.691 174.668 116.945 174.891 116.211 175.023C115.477 175.164 114.652 175.234 113.738 175.234C111.973 175.234 110.52 174.871 109.379 174.145C108.246 173.41 107.406 172.387 106.859 171.074C106.312 169.754 106.039 168.215 106.039 166.457C106.039 165.16 106.215 163.973 106.566 162.895C106.918 161.816 107.434 160.883 108.113 160.094C108.793 159.305 109.633 158.695 110.633 158.266C111.633 157.836 112.781 157.621 114.078 157.621C114.93 157.621 115.781 157.73 116.633 157.949C117.492 158.16 118.312 158.453 119.094 158.828L117.922 161.781C117.281 161.477 116.637 161.211 115.988 160.984C115.34 160.758 114.703 160.645 114.078 160.645ZM135.863 157.867L130.555 169.984C130.078 171.078 129.57 172.02 129.031 172.809C128.492 173.59 127.809 174.191 126.98 174.613C126.152 175.027 125.066 175.234 123.723 175.234C123.301 175.234 122.844 175.203 122.352 175.141C121.859 175.086 121.402 175 120.98 174.883V171.766C121.371 171.914 121.793 172.023 122.246 172.094C122.707 172.156 123.141 172.188 123.547 172.188C124.078 172.188 124.508 172.098 124.836 171.918C125.164 171.738 125.426 171.496 125.621 171.191C125.816 170.887 125.98 170.547 126.113 170.172L120.184 157.867H124.027L127.227 165.285C127.297 165.441 127.387 165.652 127.496 165.918C127.613 166.176 127.727 166.441 127.836 166.715C127.953 166.98 128.043 167.215 128.105 167.418H128.234C128.297 167.223 128.379 166.988 128.48 166.715C128.59 166.434 128.703 166.148 128.82 165.859C128.938 165.562 129.043 165.297 129.137 165.062L132.113 157.867H135.863ZM144.629 175H140.996V160.891H136.344V157.867H149.281V160.891H144.629V175ZM159.195 160.645C158.5 160.645 157.883 160.781 157.344 161.055C156.812 161.32 156.363 161.707 155.996 162.215C155.637 162.723 155.363 163.336 155.176 164.055C154.988 164.773 154.895 165.582 154.895 166.48C154.895 167.691 155.043 168.727 155.34 169.586C155.645 170.438 156.113 171.09 156.746 171.543C157.379 171.988 158.195 172.211 159.195 172.211C159.891 172.211 160.586 172.133 161.281 171.977C161.984 171.82 162.746 171.598 163.566 171.309V174.355C162.809 174.668 162.062 174.891 161.328 175.023C160.594 175.164 159.77 175.234 158.855 175.234C157.09 175.234 155.637 174.871 154.496 174.145C153.363 173.41 152.523 172.387 151.977 171.074C151.43 169.754 151.156 168.215 151.156 166.457C151.156 165.16 151.332 163.973 151.684 162.895C152.035 161.816 152.551 160.883 153.23 160.094C153.91 159.305 154.75 158.695 155.75 158.266C156.75 157.836 157.898 157.621 159.195 157.621C160.047 157.621 160.898 157.73 161.75 157.949C162.609 158.16 163.43 158.453 164.211 158.828L163.039 161.781C162.398 161.477 161.754 161.211 161.105 160.984C160.457 160.758 159.82 160.645 159.195 160.645ZM173.832 175H170.199V160.891H165.547V157.867H178.484V160.891H173.832V175ZM181.121 157.867H186.453C188.734 157.867 190.461 158.188 191.633 158.828C192.805 159.469 193.391 160.594 193.391 162.203C193.391 162.852 193.285 163.438 193.074 163.961C192.871 164.484 192.574 164.914 192.184 165.25C191.793 165.586 191.316 165.805 190.754 165.906V166.023C191.324 166.141 191.84 166.344 192.301 166.633C192.762 166.914 193.129 167.328 193.402 167.875C193.684 168.414 193.824 169.133 193.824 170.031C193.824 171.07 193.57 171.961 193.062 172.703C192.555 173.445 191.828 174.016 190.883 174.414C189.945 174.805 188.828 175 187.531 175H181.121V157.867ZM184.754 164.652H186.863C187.918 164.652 188.648 164.488 189.055 164.16C189.461 163.824 189.664 163.332 189.664 162.684C189.664 162.027 189.422 161.559 188.938 161.277C188.461 160.988 187.703 160.844 186.664 160.844H184.754V164.652ZM184.754 167.535V172H187.121C188.215 172 188.977 171.789 189.406 171.367C189.836 170.945 190.051 170.379 190.051 169.668C190.051 169.246 189.957 168.875 189.77 168.555C189.582 168.234 189.266 167.984 188.82 167.805C188.383 167.625 187.777 167.535 187.004 167.535H184.754ZM211.004 157.867L205.695 169.984C205.219 171.078 204.711 172.02 204.172 172.809C203.633 173.59 202.949 174.191 202.121 174.613C201.293 175.027 200.207 175.234 198.863 175.234C198.441 175.234 197.984 175.203 197.492 175.141C197 175.086 196.543 175 196.121 174.883V171.766C196.512 171.914 196.934 172.023 197.387 172.094C197.848 172.156 198.281 172.188 198.688 172.188C199.219 172.188 199.648 172.098 199.977 171.918C200.305 171.738 200.566 171.496 200.762 171.191C200.957 170.887 201.121 170.547 201.254 170.172L195.324 157.867H199.168L202.367 165.285C202.438 165.441 202.527 165.652 202.637 165.918C202.754 166.176 202.867 166.441 202.977 166.715C203.094 166.98 203.184 167.215 203.246 167.418H203.375C203.438 167.223 203.52 166.988 203.621 166.715C203.73 166.434 203.844 166.148 203.961 165.859C204.078 165.562 204.184 165.297 204.277 165.062L207.254 157.867H211.004ZM223.027 175H213.16V157.867H223.027V160.844H216.793V164.605H222.594V167.582H216.793V172H223.027V175ZM233.223 175H229.59V160.891H224.938V157.867H237.875V160.891H233.223V175Z" fill="#160F29"/>
<g clip-path="url(#clip1_316_554)">
<path d="M162.267 275.259C172.392 275.358 177.062 244.333 175.796 243.253C174.658 242.284 169.442 252.325 167.869 251.756C166.175 251.147 164.007 234.748 162.004 234.748C160.117 234.748 158.59 251.106 156.973 251.649C155.448 252.163 149.083 243.319 147.941 244.21C146.531 245.313 152.142 275.158 162.267 275.259Z" fill="#160F29"/>
<path d="M161.915 277.404C159.326 277.417 157.019 275.875 156.585 276.046C156.052 276.255 158.177 281.923 162.014 281.94C165.853 281.959 167.617 276.067 167.14 275.864C166.71 275.677 164.503 277.391 161.915 277.404Z" fill="#160F29"/>
<path d="M132.144 267.067C130.448 266.458 128.282 250.059 126.277 250.059C124.39 250.059 122.864 266.417 121.247 266.96C119.721 267.474 113.357 258.63 112.216 259.521C110.805 260.625 116.416 290.47 126.543 290.57C136.668 290.67 141.338 259.644 140.072 258.564C138.931 257.595 133.716 267.638 132.144 267.067Z" fill="#160F29"/>
<path d="M126.19 292.716C123.602 292.729 121.293 291.186 120.859 291.358C120.326 291.566 122.452 297.234 126.289 297.252C130.127 297.27 131.892 291.378 131.415 291.176C130.985 290.988 128.778 292.704 126.19 292.716Z" fill="#160F29"/>
</g>
<path d="M143 316C171.719 316 195 292.719 195 264C195 235.281 171.719 212 143 212C114.281 212 91 235.281 91 264C91 292.719 114.281 316 143 316Z" stroke="#160F29" stroke-width="5" stroke-miterlimit="10" stroke-linecap="round" stroke-linejoin="round"/>
<path d="M218 340L180 301" stroke="#160F29" stroke-width="5" stroke-miterlimit="10" stroke-linecap="round" stroke-linejoin="round"/>
<defs>
<clipPath id="clip0_316_554">
<rect width="47" height="47" fill="white" transform="translate(68 393)"/>
</clipPath>
<clipPath id="clip1_316_554">
<rect width="64" height="64" fill="white" transform="translate(112 234)"/>
</clipPath>
</defs>
</svg>
