<svg width="24" height="25" viewBox="0 0 24 25" fill="none" xmlns="http://www.w3.org/2000/svg">
<path d="M15 14.5L14.507 14.582C14.4951 14.5104 14.4989 14.4371 14.5182 14.3671C14.5375 14.2971 14.5718 14.2322 14.6187 14.1768C14.6656 14.1214 14.724 14.0769 14.7899 14.0464C14.8557 14.0159 14.9274 14 15 14V14.5ZM4 14.5V15C3.86739 15 3.74021 14.9473 3.64645 14.8536C3.55268 14.7598 3.5 14.6326 3.5 14.5H4ZM6 4H17.36V5H6V4ZM18.56 15H15V14H18.56V15ZM15.493 14.418L16.299 19.253L15.313 19.418L14.507 14.582L15.493 14.418ZM14.82 21H14.607V20H14.82V21ZM11.694 19.442L9.179 15.668L10.011 15.113L12.526 18.887L11.694 19.442ZM7.93 15H4V14H7.93V15ZM3.5 14.5V6.5H4.5V14.5H3.5ZM19.812 6.01L21.012 12.01L20.032 12.206L18.832 6.206L19.812 6.01ZM9.179 15.668C9.04203 15.4625 8.85546 15.2941 8.63775 15.1775C8.42004 15.061 8.17693 15 7.93 15V14C8.34153 14 8.74669 14.1016 9.10954 14.2957C9.47238 14.4899 9.78268 14.7706 10.011 15.113L9.179 15.668ZM16.299 19.253C16.3349 19.4679 16.3235 19.6881 16.2656 19.8982C16.2078 20.1083 16.1048 20.3033 15.964 20.4696C15.8231 20.6359 15.6477 20.7695 15.45 20.8611C15.2522 20.9527 15.0379 21.0001 14.82 21V20C14.8927 20.0001 14.9635 19.9844 15.0294 19.9539C15.0954 19.9234 15.1539 19.879 15.201 19.8236C15.248 19.7682 15.2824 19.7032 15.3017 19.6331C15.3211 19.5631 15.3249 19.4897 15.313 19.418L16.299 19.253ZM18.56 14C18.7819 14 19.0011 13.9508 19.2017 13.8559C19.4023 13.7609 19.5793 13.6227 19.72 13.4511C19.8607 13.2795 19.9616 13.0788 20.0154 12.8635C20.0692 12.6482 20.0755 12.4236 20.032 12.206L21.012 12.01C21.0845 12.3726 21.0746 12.7467 20.9851 13.1054C20.8955 13.4641 20.7276 13.7985 20.4932 14.0845C20.2589 14.3705 19.964 14.6009 19.6299 14.7592C19.2958 14.9175 18.9307 14.9998 18.561 15V14H18.56ZM17.36 4C17.9381 3.99989 18.4983 4.20011 18.9454 4.56658C19.3925 4.93306 19.6987 5.44314 19.812 6.01L18.832 6.206C18.764 5.86575 18.5801 5.5596 18.3117 5.3397C18.0433 5.1198 17.707 4.99975 17.36 5V4ZM14.606 21C14.0297 21.0002 13.4623 20.8581 12.9541 20.5863C12.446 20.3145 12.0128 19.9214 11.693 19.442L12.525 18.887C12.7533 19.2294 13.0626 19.5101 13.4255 19.7043C13.7883 19.8984 14.1935 20 14.605 20V21H14.606ZM6 5C5.60218 5 5.22064 5.15804 4.93934 5.43934C4.65804 5.72064 4.5 6.10218 4.5 6.5H3.5C3.5 5.83696 3.76339 5.20107 4.23223 4.73223C4.70107 4.26339 5.33696 4 6 4V5Z" fill="#160F29" fill-opacity="0.5"/>
<path d="M8 14.5V4.5" stroke="#160F29" stroke-opacity="0.5"/>
</svg>
