<svg width="315" height="315" viewBox="0 0 315 315" fill="none" xmlns="http://www.w3.org/2000/svg">
<path d="M310.345 141.807C307.94 138.97 304.649 137.532 300.557 137.532C293.175 137.532 283.15 142.171 268.993 152.13C262.722 156.554 240.437 162.979 219.812 162.979C207.469 162.979 191.245 160.679 184.001 149.686C178.085 140.722 178.947 127.158 186.633 109.208C189.127 101.865 190.869 90.8824 190.869 82.5103C190.869 41.6673 157.132 8.43359 115.664 8.43359C85.0795 8.43359 57.9834 26.2779 46.2545 54.0212C42.4776 54.7121 39.2482 55.061 36.428 55.061C26.6845 55.061 23.8145 51.057 19.573 43.9904C17.7538 40.9543 15.0443 39.2845 11.9257 39.2845C6.60637 39.2845 0.722265 44.5214 0.0922649 53.286C-0.786905 65.667 4.48319 82.4549 21.6692 91.4521C17.544 93.9955 13.8231 97.1756 10.3999 101.09C7.86698 103.982 7.23144 107.433 8.65817 110.568C10.3944 114.4 14.8456 116.971 19.7342 116.971C21.2606 116.971 22.776 116.717 24.2353 116.22C26.2594 115.534 28.7253 115.191 31.7947 115.191C34.6371 115.191 37.6616 115.473 40.5925 115.75C43.2639 115.999 45.8017 116.237 48.2239 116.275C51.265 122.833 55.2357 129.381 60.0247 135.767C61.9824 138.372 60.9586 140.324 54.3289 150.084C51.58 154.132 48.1581 159.164 44.0711 165.844C22.6431 200.803 23.4287 241.623 46.0786 269.836C75.5631 306.565 133.93 306.565 195.725 306.565C282.78 306.565 306.834 217.469 313.127 179.159C316.328 159.678 315.443 147.812 310.345 141.807ZM295.027 176.185C291.864 195.418 284.974 223.21 270.088 246.457C261.882 259.265 252.105 269.246 241.018 276.119C228.078 284.154 212.839 288.224 195.724 288.224C138.452 288.224 84.3542 288.224 60.3779 258.352C51.4969 247.281 46.8624 233.44 46.9842 218.332C47.0999 203.866 51.6182 188.627 59.7085 175.422C63.59 169.101 66.8643 164.274 69.5018 160.392C76.6077 149.918 84.6642 138.051 74.6999 124.763C70.8559 119.637 67.6659 114.445 65.1773 109.225C69.7559 106.156 72.2888 101.832 72.3934 96.8489C72.4986 91.1758 69.2914 85.6074 64.2151 82.6764C60.2167 80.3594 57.9114 78.1421 57.3749 76.0798C56.8655 74.1332 57.9827 72.2365 59.172 70.2234L59.2268 70.1348L59.559 70.0684L60.3108 68.1827C60.5267 67.7459 60.6922 67.3367 60.8307 66.9332L62.7607 62.0999C71.393 40.6393 92.1621 26.7713 115.664 26.7713C147.018 26.7713 172.526 51.7769 172.526 82.5109C172.526 88.6491 171.183 97.4137 169.474 102.7C159.504 126.251 159.233 145.456 168.689 159.789C177.973 173.874 195.657 181.322 219.811 181.322C243.489 181.322 269.817 173.984 279.56 167.127C287.965 161.21 293.34 158.401 296.569 157.068C296.796 160.502 296.637 166.42 295.027 176.185Z" fill="#160F29"/>
<path d="M96.8077 59.9269C91.3106 59.9269 86.8594 64.3836 86.8594 69.8801C86.8594 75.3662 91.3106 79.8285 96.8077 79.8285C102.299 79.8285 106.755 75.3662 106.755 69.8801C106.755 64.3843 102.299 59.9269 96.8077 59.9269Z" fill="#160F29"/>
</svg>
