<svg width="120" height="120" viewBox="0 0 120 120" fill="none" xmlns="http://www.w3.org/2000/svg">
<path d="M94.2504 77.3604C113.235 77.5468 121.992 19.374 119.618 17.3502C117.484 15.5333 107.704 34.3602 104.755 33.293C101.578 32.15 97.5136 1.40332 93.7568 1.40332C90.2192 1.40332 87.3555 32.0742 84.3238 33.0922C81.4643 34.055 69.5302 17.4731 67.3896 19.1446C64.7451 21.2115 75.2658 77.172 94.2504 77.3604Z" fill="#160F29"/>
<path d="M93.5907 81.3837C88.736 81.4083 84.4098 78.5159 83.5965 78.8375C82.5969 79.2288 86.5811 89.8559 93.7771 89.8887C100.975 89.9235 104.281 78.8764 103.388 78.4954C102.581 78.1452 98.4434 81.3591 93.5907 81.3837Z" fill="#160F29"/>
<path d="M37.7693 62.0015C34.5902 60.8585 30.5282 30.1118 26.7694 30.1118C23.2318 30.1118 20.3701 60.7827 17.3385 61.8007C14.4769 62.7635 2.54486 46.1816 0.404273 47.8531C-2.24023 49.922 8.28041 105.883 27.2671 106.069C46.2518 106.257 55.0088 48.0825 52.6346 46.0587C50.4961 44.2418 40.717 63.0707 37.7693 62.0015Z" fill="#160F29"/>
<path d="M26.6053 110.092C21.7526 110.116 17.4244 107.224 16.6111 107.546C15.6115 107.937 19.5977 118.564 26.7917 118.597C33.9878 118.632 37.298 107.585 36.4029 107.206C35.5958 106.853 31.458 110.069 26.6053 110.092Z" fill="#160F29"/>
</svg>
