<svg width="220" height="220" viewBox="0 0 220 220" fill="none" xmlns="http://www.w3.org/2000/svg">
<rect x="0.5" y="0.5" width="219" height="219" rx="14.5" fill="white" stroke="white" stroke-linejoin="round"/>
<path d="M103.654 48.1619C111.281 48.3003 118.968 47.3078 126.51 49.022C134.02 50.7711 140.726 54.9883 145.555 60.9988C150.385 67.0094 153.059 74.4661 153.15 82.176C153.186 86.23 153.204 90.278 153.15 94.3261C153.15 95.5892 153.439 96.0944 154.81 96.3471C166.491 98.4583 172.855 110.464 168.121 121.447C163.676 131.757 158.672 141.85 154.654 152.321C146.101 174.631 143.496 197.042 146.528 219.508" stroke="#160F29" stroke-width="2" stroke-miterlimit="10"/>
<path d="M95.6177 180.381C99.774 181.133 103.84 182.444 108.141 182.185C113.825 182.52 119.525 181.861 124.982 180.236C136.537 176.952 142.209 167.798 140.35 155.96C138.654 145.182 137.217 134.361 135.665 123.558C138.943 123.209 141.204 121.555 142.353 118.428C143.911 114.181 140.597 107.932 133.782 108.876C132.868 107.023 133.078 104.948 132.627 102.999C131.701 99.0056 128.17 97.5259 124.808 99.8356C122.458 101.565 119.778 102.793 116.934 103.445C111.955 104.471 106.804 104.313 101.897 102.981C99.7526 101.943 97.6663 100.789 95.6478 99.5229C92.6404 97.6101 89.1277 99.156 88.3036 102.608C87.9425 104.138 87.6913 105.692 87.5518 107.258C87.4375 108.533 86.9503 109.02 85.6812 108.696C86.1323 104.774 87.1067 101.045 89.5968 97.8688C91.684 95.1982 92.2674 92.0524 92.3938 88.7983C92.4539 87.2164 92.4539 85.6345 92.4479 84.0526" stroke="#160F29" stroke-width="2" stroke-miterlimit="10"/>
<path d="M92.4301 84.0286C92.4301 85.6105 92.4301 87.1924 92.3759 88.7743C92.2496 92.0283 91.6662 95.1741 89.579 97.8447C87.0889 101.027 86.1144 104.756 85.6633 108.672C85.513 108.702 85.3686 108.744 85.2242 108.768C81.0439 109.321 78.4214 111.823 78.0846 115.577C77.7658 119.101 79.889 122.055 83.913 123.282C85.1821 123.673 85.0618 124.304 84.9175 125.273C83.3777 135.642 81.9702 146.024 80.3161 156.369C79.2695 162.914 80.6409 168.682 84.8754 173.764C87.7144 177.175 91.5639 178.943 95.6179 180.381" stroke="#160F29" stroke-width="2" stroke-miterlimit="10"/>
<path d="M74.2287 219.532C74.2287 219.447 74.2288 219.369 74.2588 219.291C75.2708 211.197 75.5907 203.031 75.2152 194.883C74.6137 182.937 71.498 162.631 61.6035 141.621C58.4578 134.932 55.4864 128.16 52.5812 121.369C51.4565 118.869 50.919 116.146 51.0099 113.406C51.1007 110.667 51.8175 107.985 53.1053 105.565C54.3932 103.146 56.2178 101.053 58.4395 99.4482C60.6611 97.843 63.2207 96.7678 65.9222 96.3049C67.3357 96.0402 67.7267 95.4267 67.6846 94.0674C67.6124 89.5743 67.4921 85.0451 67.6846 80.582C68.6109 61.0156 86.054 46.8506 103.66 48.1619" stroke="#160F29" stroke-width="2" stroke-miterlimit="10"/>
<path d="M135.677 123.48C134.991 118.596 133.926 113.754 133.794 108.792C140.609 107.854 143.923 114.103 142.365 118.35C141.216 121.483 138.955 123.137 135.677 123.48Z" stroke="#160F29" stroke-width="2" stroke-miterlimit="10"/>
<path d="M131.593 131.63C131.394 134.854 130.498 137.886 128.176 140.34C127.334 141.23 126.33 141.994 125.013 141.585C123.695 141.176 123.178 139.901 123.01 138.578C122.56 135.434 123.288 132.236 125.055 129.597C126.083 128.034 127.292 126.217 129.494 126.963C131.509 127.667 131.43 129.754 131.593 131.63Z" stroke="#160F29" stroke-width="2" stroke-miterlimit="10"/>
<path d="M98.138 138.174C98.0588 138.868 97.9424 139.557 97.7892 140.238C97.0975 142.86 95.1426 143.468 93.0855 141.735C90.3127 139.401 88.6105 133.663 89.6691 130.229C90.4811 127.594 92.3337 127.035 94.3787 128.924C97.0133 131.36 97.8313 134.59 98.138 138.174Z" stroke="#160F29" stroke-width="2" stroke-miterlimit="10"/>
<path d="M92.43 84.0286C109.548 84.0286 126.671 84.0286 143.797 84.0286C146.861 83.9325 149.909 84.5052 152.729 85.7068C155.911 87.1624 158.455 89.2074 159.43 92.8103C160.753 92.8885 162.263 92.5036 163.039 94.0675V95.102C162.335 96.5275 161.006 96.3952 159.58 96.305V97.4719C159.58 101.454 159.58 105.438 159.58 109.423C159.514 112.759 158.338 115.978 156.238 118.571C154.138 121.164 151.233 122.982 147.983 123.739C144.281 124.563 140.418 124.292 136.868 122.957C131.226 120.924 125.776 118.536 121.085 114.711C117.656 111.908 114.908 108.599 114.174 104.082C113.921 102.11 113.818 100.121 113.867 98.1335C113.903 97.816 113.83 97.4956 113.66 97.2254C113.489 96.9551 113.231 96.7514 112.929 96.6478C112.101 96.2643 111.2 96.0657 110.288 96.0657C109.376 96.0657 108.475 96.2643 107.648 96.6478C107.361 96.7497 107.117 96.9466 106.957 97.2059C106.798 97.4651 106.731 97.7712 106.769 98.0734C106.824 100.198 106.716 102.323 106.445 104.431C105.753 108.557 103.287 111.697 100.141 114.277C94.2666 119.13 87.2855 122.458 79.8168 123.967C73.2005 125.315 66.1209 122.584 62.6925 115.974C61.6435 114.034 61.082 111.869 61.0564 109.664C61.0564 105.273 61.0564 100.882 61.0564 96.3952C59.6369 96.2087 57.5317 96.7922 57.634 94.5246C57.7362 92.257 59.7993 92.9908 61.1406 92.8043C63.4323 86.7113 68.4427 84.7865 74.2591 84.173C75.9718 84.0375 77.6902 83.9893 79.4078 84.0286H92.424M77.2424 106.885C77.6718 106.65 78.075 106.369 78.4454 106.049C82.3431 102.184 86.2246 98.3039 90.0902 94.4103C90.3219 94.1997 90.5242 93.959 90.6917 93.6945C90.8757 93.374 90.9508 93.0024 90.9056 92.6355C90.8605 92.2687 90.6976 91.9264 90.4413 91.66C90.1851 91.3936 89.8494 91.2175 89.4846 91.1581C89.1198 91.0988 88.7455 91.1593 88.4181 91.3307C88.0922 91.5182 87.7962 91.7534 87.5399 92.0284C83.7024 95.8619 79.871 99.6954 76.0455 103.529C75.7951 103.762 75.5785 104.03 75.4019 104.323C74.7523 105.472 75.5703 106.861 77.2485 106.867L77.2424 106.885ZM130.029 106.885C130.487 106.622 130.919 106.313 131.316 105.965C135.136 102.176 138.937 98.3561 142.744 94.5366C142.965 94.3245 143.167 94.093 143.346 93.8449C143.592 93.5282 143.714 93.1321 143.687 92.7317C143.66 92.3314 143.488 91.9548 143.202 91.6735C142.92 91.3683 142.536 91.1765 142.123 91.1344C141.71 91.0923 141.295 91.2028 140.958 91.445C140.681 91.6471 140.423 91.8746 140.188 92.1246C136.423 95.8859 132.663 99.6473 128.91 103.409C128.609 103.685 128.346 104.001 128.128 104.347C127.503 105.502 128.357 106.885 130.035 106.855L130.029 106.885ZM106.421 93.4058C107.657 92.8784 108.986 92.6065 110.33 92.6065C111.674 92.6065 113.004 92.8784 114.24 93.4058L116.73 87.6315H103.948L106.421 93.4058ZM78.8785 92.8043C78.5182 92.2444 78.0716 91.745 77.5552 91.3247C76.7913 90.8976 76.0395 91.2405 75.426 91.854C73.2486 94.0434 71.0531 96.2148 68.8818 98.4102C67.9314 99.3726 67.8593 100.359 68.6171 101.135C69.375 101.911 70.4216 101.833 71.3419 100.912C73.5353 98.739 75.7147 96.5516 77.88 94.3502C78.264 93.8515 78.6003 93.3178 78.8845 92.7562L78.8785 92.8043ZM122.931 101.652C123.362 101.43 123.766 101.16 124.134 100.846C126.294 98.735 128.417 96.5877 130.546 94.4524C130.745 94.2728 130.923 94.071 131.076 93.8509C131.309 93.5251 131.414 93.1248 131.37 92.7265C131.327 92.3282 131.139 91.9598 130.841 91.6916C130.582 91.4103 130.232 91.2303 129.853 91.184C129.474 91.1377 129.09 91.2281 128.772 91.439C128.453 91.6407 128.162 91.8833 127.906 92.1608C125.901 94.1657 123.886 96.1707 121.861 98.1756C121.56 98.4547 121.297 98.7722 121.079 99.1199C120.465 100.227 121.35 101.64 122.937 101.604L122.931 101.652Z" fill="#160F29"/>
<path d="M77.2482 106.867C75.5701 106.867 74.7521 105.472 75.4077 104.305C75.5843 104.012 75.8009 103.744 76.0513 103.511C79.8767 99.6854 83.7002 95.8519 87.5216 92.0104C87.7779 91.7354 88.0739 91.5002 88.3998 91.3127C88.7273 91.1413 89.1015 91.0807 89.4663 91.1401C89.8311 91.1995 90.1668 91.3756 90.4231 91.642C90.6793 91.9083 90.8422 92.2507 90.8873 92.6175C90.9325 92.9844 90.8574 93.356 90.6734 93.6765C90.5059 93.941 90.3036 94.1817 90.0719 94.3923C86.1984 98.2779 82.3168 102.157 78.4272 106.031C78.0643 106.35 77.6692 106.63 77.2482 106.867Z" fill="white"/>
<path d="M130.035 106.855C128.357 106.855 127.503 105.502 128.14 104.329C128.358 103.983 128.621 103.667 128.922 103.391C132.675 99.6253 136.435 95.864 140.2 92.1067C140.435 91.8566 140.693 91.6291 140.97 91.427C141.307 91.1848 141.722 91.0743 142.135 91.1164C142.548 91.1585 142.932 91.3503 143.213 91.6555C143.5 91.9368 143.672 92.3134 143.699 92.7138C143.726 93.1141 143.604 93.5103 143.358 93.8269C143.178 94.0751 142.977 94.3066 142.756 94.5186C138.949 98.326 135.147 102.145 131.328 105.947C130.928 106.292 130.495 106.596 130.035 106.855Z" fill="white"/>
<path d="M78.8843 92.7563C78.5994 93.301 78.2652 93.8184 77.8858 94.3021C75.7244 96.5075 73.545 98.6949 71.3476 100.864C70.4093 101.785 69.3687 101.845 68.6229 101.087C67.877 100.329 67.9372 99.3245 68.8875 98.3621C71.0589 96.1667 73.2543 93.9953 75.4317 91.8059C76.0332 91.2044 76.7971 90.8495 77.561 91.2766C78.0774 91.6969 78.524 92.1963 78.8843 92.7563Z" fill="white"/>
<path d="M122.937 101.604C121.35 101.64 120.465 100.227 121.091 99.0657C121.309 98.718 121.572 98.4004 121.873 98.1214C123.878 96.1165 125.893 94.1115 127.918 92.1065C128.174 91.8291 128.465 91.5865 128.784 91.3848C129.102 91.1739 129.486 91.0835 129.865 91.1298C130.244 91.1761 130.595 91.356 130.853 91.6374C131.151 91.9056 131.339 92.274 131.382 92.6723C131.426 93.0706 131.321 93.4709 131.088 93.7967C130.935 94.0168 130.757 94.2186 130.558 94.3982C128.423 96.5696 126.306 98.6868 124.146 100.78C123.777 101.1 123.371 101.377 122.937 101.604Z" fill="white"/>
</svg>
