<svg width="120" height="120" viewBox="0 0 120 120" fill="none" xmlns="http://www.w3.org/2000/svg">
<path d="M110.138 96.5739L72.2149 105.791L65.4134 107.443L65.4069 107.445L32.235 115.506C28.3221 116.454 24.3749 114.049 23.4256 110.138L14.2069 72.2136L12.5569 65.4121L12.5526 65.4078L4.49105 32.2337C3.54603 28.3251 5.94821 24.3757 9.86113 23.4243L47.7838 14.2077L54.5854 12.5556L54.5918 12.5534L87.7658 4.49188C88.3401 4.35259 88.9166 4.28616 89.4823 4.28616C92.7716 4.28616 95.7631 6.52548 96.5731 9.86196L105.792 47.7847L107.442 54.5862C107.444 54.5883 107.444 54.5905 107.446 54.5926L115.508 87.7645C116.453 91.6732 114.051 95.6225 110.138 96.5739ZM100.092 107.381H83.8358L105.925 102.015L107.202 101.706C106.467 104.95 103.557 107.381 100.092 107.381ZM12.6169 100.093V83.8366L17.9848 105.926L18.2934 107.201C15.0469 106.466 12.6169 103.558 12.6169 100.093ZM19.907 12.6177H36.1629L14.074 17.9835L12.7969 18.2942C13.5319 15.0478 16.4419 12.6177 19.907 12.6177ZM107.382 19.9078V36.1638L102.014 14.0727L101.705 12.7977C104.952 13.5327 107.382 16.4406 107.382 19.9078ZM119.673 86.7574L111.668 53.804V19.9078C111.668 13.6934 106.743 8.62337 100.593 8.35765C98.8853 2.45185 92.7931 -1.13535 86.7544 0.326103L53.8032 8.33193H19.907C13.6926 8.33193 8.62253 13.2563 8.35681 19.4064C2.45315 21.1143 -1.13404 27.2022 0.325271 33.243L8.3311 66.1964V100.093C8.3311 106.311 13.2662 111.388 19.4248 111.643C20.8777 116.651 25.4635 120 30.5164 120C31.4164 120 32.3315 119.893 33.2443 119.672L66.1955 111.666H100.092C106.304 111.666 111.376 106.742 111.642 100.592C117.548 98.8861 121.133 92.796 119.673 86.7574Z" fill="#160F29"/>
<path d="M29.7801 88.0295L46.6982 45.2125L81.3788 75.4915C82.2702 76.2737 83.6224 76.1794 84.4024 75.2879C85.1802 74.3965 85.0881 73.0422 84.1966 72.2643L70.7415 60.517L76.7351 49.6718L102.051 70.52C102.45 70.8479 102.932 71.0086 103.412 71.0086C104.029 71.0086 104.644 70.7429 105.066 70.2286C105.818 69.3157 105.688 67.9635 104.775 67.2114L77.468 44.7239C76.9751 44.321 76.3301 44.156 75.7044 44.2739C75.0787 44.3918 74.5387 44.7839 74.2301 45.3411L67.4393 57.6305L47.2318 39.9881C46.7068 39.5295 45.9954 39.3538 45.3161 39.5188C44.6389 39.6838 44.0839 40.166 43.8289 40.8131L25.7944 86.4545C25.3594 87.5538 25.8972 88.7988 26.9987 89.2338C27.258 89.3367 27.5237 89.386 27.7851 89.386C28.6401 89.386 29.448 88.8717 29.7801 88.0295Z" fill="#160F29"/>
<path d="M83.9505 78.6712L28.9511 92.0342C27.8004 92.315 27.0954 93.4721 27.3761 94.6228C27.6139 95.6021 28.4904 96.26 29.4547 96.26C29.6218 96.26 29.7932 96.2407 29.9647 96.2L84.9641 82.8348C86.1126 82.5562 86.8177 81.3969 86.5391 80.2462C86.2584 79.0976 85.1033 78.384 83.9505 78.6712Z" fill="#160F29"/>
<path d="M104.576 73.6592L90.8253 76.9999C89.6767 77.2785 88.9717 78.4378 89.2503 79.5885C89.4881 80.5678 90.3646 81.2257 91.331 81.2257C91.4981 81.2257 91.6696 81.2064 91.8389 81.1636L105.59 77.8228C106.738 77.5442 107.443 76.3849 107.165 75.2342C106.884 74.0856 105.729 73.3763 104.576 73.6592Z" fill="#160F29"/>
<path d="M62.9773 32.3436C63.1788 32.2965 63.3823 32.2729 63.5859 32.2708C63.8602 32.2708 64.1281 32.3244 64.3809 32.4058C64.4409 32.4251 64.4945 32.4572 64.5502 32.4808C64.7238 32.5515 64.8909 32.6415 65.0431 32.7486C65.2081 32.8622 65.3431 33.0015 65.4738 33.1451C65.5509 33.2308 65.6409 33.3015 65.7074 33.3979C65.8831 33.6572 66.0245 33.9422 66.1017 34.2572C66.1831 34.6001 66.1938 34.943 66.1402 35.273C66.1231 35.3673 66.0652 35.4465 66.0417 35.5387C65.9752 35.7637 65.9195 35.993 65.7974 36.1923C65.7631 36.2501 65.7009 36.2866 65.6624 36.3401C65.5102 36.5523 65.3474 36.7623 65.1331 36.9187C65.1224 36.9273 65.1095 36.9294 65.0988 36.9359C64.8374 37.1223 64.5416 37.2701 64.2116 37.3516C64.0445 37.3923 63.8816 37.3623 63.7166 37.3709C63.5388 37.3773 63.3588 37.418 63.1873 37.3901C62.1952 37.2273 61.3423 36.4944 61.0916 35.4615C60.7573 34.0901 61.6145 32.6886 62.9773 32.3436ZM63.6052 41.7102C64.1388 41.7102 64.6766 41.6481 65.2167 41.5173C65.2188 41.5173 65.2209 41.5173 65.2231 41.5173C68.8938 40.6238 71.1567 36.9144 70.2653 33.2501C69.3781 29.5643 65.6517 27.2886 61.9509 28.1822C58.293 29.1057 56.0408 32.8258 56.9258 36.4751C57.6865 39.6037 60.5066 41.7102 63.6052 41.7102Z" fill="#160F29"/>
</svg>
