<svg width="38" height="43" viewBox="0 0 38 43" fill="none" xmlns="http://www.w3.org/2000/svg">
<path d="M35.1702 14.6277H28.2979V9.37234C28.2979 6.90639 27.3183 4.54144 25.5746 2.79775C23.8309 1.05406 21.466 0.0744629 19 0.0744629C16.5341 0.0744629 14.1691 1.05406 12.4254 2.79775C10.6817 4.54144 9.70213 6.90639 9.70213 9.37234V14.6277H2.82979C2.07928 14.6277 1.35951 14.9258 0.828826 15.4565C0.298138 15.9872 0 16.7069 0 17.4574V40.0957C0 40.8462 0.298138 41.566 0.828826 42.0967C1.35951 42.6274 2.07928 42.9255 2.82979 42.9255H35.1702C35.9207 42.9255 36.6405 42.6274 37.1712 42.0967C37.7019 41.566 38 40.8462 38 40.0957V17.4574C38 16.7069 37.7019 15.9872 37.1712 15.4565C36.6405 14.9258 35.9207 14.6277 35.1702 14.6277ZM12.1277 9.37234C12.1277 7.54968 12.8517 5.80167 14.1405 4.51286C15.4293 3.22404 17.1773 2.49999 19 2.49999C20.8227 2.49999 22.5707 3.22404 23.8595 4.51286C25.1483 5.80167 25.8723 7.54968 25.8723 9.37234V14.6277H12.1277V9.37234ZM35.5745 40.0957C35.5745 40.203 35.5319 40.3058 35.4561 40.3816C35.3803 40.4574 35.2774 40.5 35.1702 40.5H2.82979C2.72257 40.5 2.61975 40.4574 2.54394 40.3816C2.46812 40.3058 2.42553 40.203 2.42553 40.0957V17.4574C2.42553 17.3502 2.46812 17.2474 2.54394 17.1716C2.61975 17.0958 2.72257 17.0532 2.82979 17.0532H35.1702C35.2774 17.0532 35.3803 17.0958 35.4561 17.1716C35.5319 17.2474 35.5745 17.3502 35.5745 17.4574V40.0957Z" fill="#160F29" fill-opacity="0.5"/>
</svg>
