<svg width="84" height="67" viewBox="0 0 84 67" fill="none" xmlns="http://www.w3.org/2000/svg">
<path d="M70.875 0C74.356 0 77.6944 1.35748 80.1558 3.77382C82.6172 6.19015 84 9.4674 84 12.8846V54.1154C84 57.5326 82.6172 60.8098 80.1558 63.2262C77.6944 65.6425 74.356 67 70.875 67H13.125C9.64403 67 6.30564 65.6425 3.84422 63.2262C1.38281 60.8098 0 57.5326 0 54.1154V12.8846C0 9.4674 1.38281 6.19015 3.84422 3.77382C6.30564 1.35748 9.64403 0 13.125 0H70.875ZM78.75 20.4144L43.3335 40.8752C42.9987 41.0681 42.6244 41.1858 42.2377 41.2197C41.8509 41.2535 41.4613 41.2028 41.097 41.071L40.6665 40.8752L5.25 20.4247V54.1154C5.25 56.1657 6.07969 58.1321 7.55653 59.5819C9.03338 61.0317 11.0364 61.8461 13.125 61.8461H70.875C72.9636 61.8461 74.9666 61.0317 76.4435 59.5819C77.9203 58.1321 78.75 56.1657 78.75 54.1154V20.4144ZM70.875 5.15385H13.125C11.0364 5.15385 9.03338 5.96833 7.55653 7.41813C6.07969 8.86794 5.25 10.8343 5.25 12.8846V14.4411L42 35.6646L78.75 14.4308V12.8846C78.75 10.8343 77.9203 8.86794 76.4435 7.41813C74.9666 5.96833 72.9636 5.15385 70.875 5.15385Z" fill="#160F29"/>
</svg>
