<svg width="17" height="17" viewBox="0 0 17 17" fill="none" xmlns="http://www.w3.org/2000/svg">
<path d="M16.2187 15.8792L11.7347 11.3952C12.8123 10.1016 13.3496 8.44236 13.2349 6.76269C13.1203 5.08301 12.3625 3.51219 11.1192 2.37702C9.87585 1.24184 8.24274 0.629705 6.55959 0.66795C4.87644 0.706194 3.27283 1.39187 2.08235 2.58235C0.891875 3.77283 0.206194 5.37644 0.16795 7.05959C0.129705 8.74274 0.741842 10.3758 1.87702 11.6192C3.01219 12.8625 4.58301 13.6203 6.26269 13.7349C7.94236 13.8496 9.60158 13.3123 10.8952 12.2347L15.3792 16.7187L16.2187 15.8792ZM1.37499 7.21874C1.37499 6.16185 1.6884 5.12869 2.27558 4.24991C2.86276 3.37114 3.69734 2.68622 4.67378 2.28176C5.65022 1.87731 6.72467 1.77148 7.76126 1.97767C8.79784 2.18386 9.75001 2.6928 10.4973 3.44014C11.2447 4.18748 11.7536 5.13964 11.9598 6.17623C12.166 7.21281 12.0602 8.28726 11.6557 9.26371C11.2513 10.2401 10.5663 11.0747 9.68757 11.6619C8.8088 12.2491 7.77564 12.5625 6.71874 12.5625C5.30197 12.5609 3.94368 11.9974 2.94188 10.9956C1.94007 9.9938 1.37656 8.63551 1.37499 7.21874Z" fill="#160F29" fill-opacity="0.5"/>
</svg>
