<svg width="52" height="52" viewBox="0 0 52 52" fill="none" xmlns="http://www.w3.org/2000/svg">
<path d="M30.2857 12H38.8571C39.4255 12 39.9705 12.2129 40.3724 12.5918C40.7742 12.9707 41 13.4846 41 14.0204V22.102C41 22.6379 40.7742 23.1518 40.3724 23.5307C39.9705 23.9096 39.4255 24.1224 38.8571 24.1224H30.2857C29.7174 24.1224 29.1723 23.9096 28.7705 23.5307C28.3686 23.1518 28.1429 22.6379 28.1429 22.102V14.0204C28.1429 13.4846 28.3686 12.9707 28.7705 12.5918C29.1723 12.2129 29.7174 12 30.2857 12ZM29.5714 22.102C29.5714 22.2807 29.6467 22.452 29.7806 22.5783C29.9146 22.7046 30.0963 22.7755 30.2857 22.7755H38.8571C39.0466 22.7755 39.2283 22.7046 39.3622 22.5783C39.4962 22.452 39.5714 22.2807 39.5714 22.102V14.0204C39.5714 13.8418 39.4962 13.6705 39.3622 13.5442C39.2283 13.4179 39.0466 13.3469 38.8571 13.3469H30.2857C30.0963 13.3469 29.9146 13.4179 29.7806 13.5442C29.6467 13.6705 29.5714 13.8418 29.5714 14.0204V22.102ZM13.1429 12H21.7143C22.2826 12 22.8277 12.2129 23.2295 12.5918C23.6314 12.9707 23.8571 13.4846 23.8571 14.0204V22.102C23.8571 22.6379 23.6314 23.1518 23.2295 23.5307C22.8277 23.9096 22.2826 24.1224 21.7143 24.1224H13.1429C12.5745 24.1224 12.0295 23.9096 11.6276 23.5307C11.2258 23.1518 11 22.6379 11 22.102V14.0204C11 13.4846 11.2258 12.9707 11.6276 12.5918C12.0295 12.2129 12.5745 12 13.1429 12ZM12.4286 22.102C12.4286 22.2807 12.5038 22.452 12.6378 22.5783C12.7717 22.7046 12.9534 22.7755 13.1429 22.7755H21.7143C21.9037 22.7755 22.0854 22.7046 22.2194 22.5783C22.3533 22.452 22.4286 22.2807 22.4286 22.102V14.0204C22.4286 13.8418 22.3533 13.6705 22.2194 13.5442C22.0854 13.4179 21.9037 13.3469 21.7143 13.3469H13.1429C12.9534 13.3469 12.7717 13.4179 12.6378 13.5442C12.5038 13.6705 12.4286 13.8418 12.4286 14.0204V22.102ZM30.2857 28.1633H38.8571C39.4255 28.1633 39.9705 28.3761 40.3724 28.755C40.7742 29.1339 41 29.6478 41 30.1837V38.2653C41 38.8012 40.7742 39.3151 40.3724 39.694C39.9705 40.0729 39.4255 40.2857 38.8571 40.2857H30.2857C29.7174 40.2857 29.1723 40.0729 28.7705 39.694C28.3686 39.3151 28.1429 38.8012 28.1429 38.2653V30.1837C28.1429 29.6478 28.3686 29.1339 28.7705 28.755C29.1723 28.3761 29.7174 28.1633 30.2857 28.1633ZM29.5714 38.2653C29.5714 38.4439 29.6467 38.6152 29.7806 38.7415C29.9146 38.8678 30.0963 38.9388 30.2857 38.9388H38.8571C39.0466 38.9388 39.2283 38.8678 39.3622 38.7415C39.4962 38.6152 39.5714 38.4439 39.5714 38.2653V30.1837C39.5714 30.0051 39.4962 29.8338 39.3622 29.7075C39.2283 29.5812 39.0466 29.5102 38.8571 29.5102H30.2857C30.0963 29.5102 29.9146 29.5812 29.7806 29.7075C29.6467 29.8338 29.5714 30.0051 29.5714 30.1837V38.2653ZM13.1429 28.1633H21.7143C22.2826 28.1633 22.8277 28.3761 23.2295 28.755C23.6314 29.1339 23.8571 29.6478 23.8571 30.1837V38.2653C23.8571 38.8012 23.6314 39.3151 23.2295 39.694C22.8277 40.0729 22.2826 40.2857 21.7143 40.2857H13.1429C12.5745 40.2857 12.0295 40.0729 11.6276 39.694C11.2258 39.3151 11 38.8012 11 38.2653V30.1837C11 29.6478 11.2258 29.1339 11.6276 28.755C12.0295 28.3761 12.5745 28.1633 13.1429 28.1633ZM12.4286 38.2653C12.4286 38.4439 12.5038 38.6152 12.6378 38.7415C12.7717 38.8678 12.9534 38.9388 13.1429 38.9388H21.7143C21.9037 38.9388 22.0854 38.8678 22.2194 38.7415C22.3533 38.6152 22.4286 38.4439 22.4286 38.2653V30.1837C22.4286 30.0051 22.3533 29.8338 22.2194 29.7075C22.0854 29.5812 21.9037 29.5102 21.7143 29.5102H13.1429C12.9534 29.5102 12.7717 29.5812 12.6378 29.7075C12.5038 29.8338 12.4286 30.0051 12.4286 30.1837V38.2653Z" fill="#160F29"/>
<rect x="0.5" y="0.5" width="51" height="51" rx="1.5" stroke="#160F29"/>
</svg>
