<svg width="42" height="42" viewBox="0 0 42 42" fill="none" xmlns="http://www.w3.org/2000/svg">
<path d="M21 41C32.0457 41 41 32.0457 41 21C41 9.9543 32.0457 1 21 1C9.9543 1 1 9.9543 1 21C1 32.0457 9.9543 41 21 41Z" stroke="#160F29" stroke-width="0.8" stroke-miterlimit="10"/>
<path d="M19.7827 8.73842C21.1694 8.76358 22.5671 8.58313 23.9384 8.89481C25.3038 9.21283 26.5231 9.97958 27.4012 11.0724C28.2793 12.1652 28.7655 13.521 28.7821 14.9228C28.7886 15.6599 28.7919 16.3959 28.7821 17.1319C28.7821 17.3616 28.8346 17.4534 29.0839 17.4994C31.2077 17.8832 32.3647 20.0661 31.5041 22.063C30.6959 23.9375 29.786 25.7725 29.0555 27.6765C27.5003 31.7327 27.0268 35.8075 27.578 39.8922" stroke="#160F29" stroke-width="0.8" stroke-miterlimit="10"/>
<path d="M18.3218 32.7783C19.0775 32.915 19.8168 33.1534 20.5987 33.1063C21.6322 33.1672 22.6685 33.0473 23.6608 32.752C25.7616 32.1549 26.7929 30.4904 26.455 28.3382C26.1466 26.3784 25.8852 24.411 25.6031 22.4469C26.1991 22.3835 26.6103 22.0827 26.8192 21.514C27.1024 20.7419 26.4998 19.6057 25.2608 19.7774C25.0945 19.4405 25.1328 19.0633 25.0508 18.7089C24.8824 17.9828 24.2404 17.7137 23.6291 18.1337C23.2018 18.448 22.7146 18.6714 22.1976 18.7898C21.2922 18.9765 20.3557 18.9477 19.4635 18.7056C19.0736 18.5169 18.6943 18.307 18.3273 18.0768C17.7804 17.729 17.1418 18.0101 16.992 18.6378C16.9263 18.916 16.8806 19.1985 16.8552 19.4832C16.8345 19.715 16.7459 19.8036 16.5151 19.7446C16.5972 19.0315 16.7743 18.3535 17.2271 17.7761C17.6066 17.2905 17.7126 16.7185 17.7356 16.1269C17.7465 15.8393 17.7465 15.5517 17.7455 15.264" stroke="#160F29" stroke-width="0.8" stroke-miterlimit="10"/>
<path d="M17.7419 15.2596C17.7419 15.5473 17.7419 15.8349 17.7321 16.1225C17.7091 16.7141 17.603 17.2861 17.2235 17.7717C16.7708 18.3502 16.5936 19.0282 16.5116 19.7402C16.4842 19.7456 16.458 19.7533 16.4318 19.7577C15.6717 19.8583 15.1949 20.3132 15.1336 20.9956C15.0757 21.6365 15.4617 22.1735 16.1933 22.3966C16.4241 22.4676 16.4022 22.5825 16.376 22.7586C16.096 24.6439 15.8401 26.5315 15.5394 28.4125C15.3491 29.6024 15.5984 30.6512 16.3683 31.5753C16.8845 32.1953 17.5844 32.5169 18.3215 32.7782" stroke="#160F29" stroke-width="0.8" stroke-miterlimit="10"/>
<path d="M14.4329 39.8966C14.4329 39.8813 14.4329 39.867 14.4384 39.8528C14.6223 38.3812 14.6805 36.8965 14.6122 35.4149C14.5029 33.243 13.9364 29.551 12.1374 25.731C11.5654 24.5149 11.0252 23.2835 10.497 22.0488C10.2925 21.5944 10.1947 21.0991 10.2113 20.6011C10.2278 20.103 10.3581 19.6153 10.5923 19.1754C10.8264 18.7355 11.1582 18.3551 11.5621 18.0632C11.966 17.7714 12.4314 17.5759 12.9226 17.4917C13.1796 17.4436 13.2507 17.332 13.243 17.0849C13.2299 16.268 13.208 15.4445 13.243 14.633C13.4114 11.0755 16.5829 8.50003 19.7839 8.73844" stroke="#160F29" stroke-width="0.8" stroke-miterlimit="10"/>
<path d="M25.605 22.4327C25.4803 21.5447 25.2868 20.6643 25.2627 19.7621C26.5018 19.5915 27.1043 20.7277 26.8211 21.4998C26.6122 22.0696 26.201 22.3703 25.605 22.4327Z" stroke="#160F29" stroke-width="0.8" stroke-miterlimit="10"/>
<path d="M24.8625 23.9145C24.8264 24.5007 24.6635 25.0518 24.2413 25.498C24.0882 25.6599 23.9056 25.7988 23.6661 25.7244C23.4266 25.65 23.3325 25.4182 23.3019 25.1776C23.2201 24.6061 23.3526 24.0246 23.6737 23.5448C23.8608 23.2605 24.0806 22.9302 24.4808 23.0658C24.8472 23.1938 24.833 23.5733 24.8625 23.9145Z" stroke="#160F29" stroke-width="0.8" stroke-miterlimit="10"/>
<path d="M18.7802 25.1044C18.7658 25.2304 18.7446 25.3557 18.7167 25.4795C18.591 25.9563 18.2355 26.0667 17.8615 25.7518C17.3574 25.3274 17.0479 24.2841 17.2404 23.6597C17.388 23.1807 17.7248 23.079 18.0966 23.4224C18.5757 23.8653 18.7244 24.4526 18.7802 25.1044Z" stroke="#160F29" stroke-width="0.8" stroke-miterlimit="10"/>
<path d="M17.7422 15.2596C20.8547 15.2596 23.9678 15.2596 27.0817 15.2596C27.6388 15.2421 28.193 15.3463 28.7057 15.5647C29.2842 15.8294 29.7468 16.2012 29.924 16.8563C30.1646 16.8705 30.4391 16.8005 30.5802 17.0849V17.273C30.4522 17.5321 30.2105 17.5081 29.9513 17.4917V17.7038C29.9513 18.4278 29.9513 19.1521 29.9513 19.8768C29.9394 20.4834 29.7256 21.0687 29.3437 21.5401C28.9619 22.0115 28.4337 22.3421 27.8429 22.4796C27.1697 22.6296 26.4674 22.5802 25.8219 22.3375C24.7961 21.9678 23.8052 21.5337 22.9522 20.8381C22.3289 20.3285 21.8291 19.727 21.6957 18.9057C21.6497 18.5471 21.631 18.1856 21.6399 17.8241C21.6465 17.7664 21.6332 17.7081 21.6022 17.659C21.5711 17.6099 21.5243 17.5728 21.4693 17.554C21.3188 17.4843 21.155 17.4482 20.9892 17.4482C20.8234 17.4482 20.6595 17.4843 20.5091 17.554C20.4569 17.5725 20.4126 17.6083 20.3836 17.6555C20.3545 17.7026 20.3425 17.7583 20.3494 17.8132C20.3594 18.1995 20.3397 18.5859 20.2904 18.9691C20.1646 19.7194 19.7162 20.2902 19.1443 20.7594C18.0762 21.6417 16.8069 22.2468 15.4489 22.5212C14.246 22.7662 12.9588 22.2697 12.3354 21.0678C12.1447 20.7152 12.0426 20.3215 12.038 19.9206C12.038 19.1223 12.038 18.3239 12.038 17.5081C11.7799 17.4742 11.3971 17.5803 11.4157 17.168C11.4343 16.7557 11.8094 16.8891 12.0533 16.8552C12.4699 15.7474 13.3809 15.3974 14.4384 15.2859C14.7498 15.2612 15.0623 15.2525 15.3746 15.2596H17.7412M14.9809 19.4153C15.0589 19.3725 15.1322 19.3216 15.1996 19.2633C15.9083 18.5605 16.614 17.8551 17.3168 17.1472C17.3589 17.1089 17.3957 17.0651 17.4262 17.017C17.4596 16.9588 17.4733 16.8912 17.4651 16.8245C17.4569 16.7578 17.4273 16.6956 17.3807 16.6471C17.3341 16.5987 17.273 16.5667 17.2067 16.5559C17.1404 16.5451 17.0723 16.5561 17.0128 16.5873C16.9536 16.6214 16.8997 16.6641 16.8531 16.7141C16.1554 17.4111 15.4588 18.1081 14.7632 18.8051C14.7177 18.8476 14.6783 18.8961 14.6462 18.9495C14.5281 19.1583 14.6768 19.411 14.982 19.4121L14.9809 19.4153ZM24.5784 19.4153C24.6618 19.3674 24.7402 19.3114 24.8125 19.248C25.5069 18.559 26.1981 17.8646 26.8903 17.1702C26.9305 17.1316 26.9671 17.0895 26.9997 17.0444C27.0445 16.9868 27.0666 16.9148 27.0617 16.842C27.0569 16.7692 27.0255 16.7007 26.9734 16.6496C26.9222 16.5941 26.8525 16.5592 26.7773 16.5516C26.7022 16.5439 26.6269 16.564 26.5655 16.608C26.5151 16.6448 26.4682 16.6862 26.4255 16.7316C25.7409 17.4155 25.0574 18.0994 24.375 18.7832C24.3203 18.8336 24.2725 18.8909 24.2328 18.9538C24.1191 19.1638 24.2744 19.4153 24.5795 19.4099L24.5784 19.4153ZM20.286 16.9646C20.5107 16.8687 20.7525 16.8192 20.9968 16.8192C21.2412 16.8192 21.483 16.8687 21.7077 16.9646L22.1604 15.9147H19.8365L20.286 16.9646ZM15.2783 16.8552C15.2128 16.7534 15.1316 16.6626 15.0377 16.5862C14.8988 16.5085 14.7622 16.5709 14.6506 16.6824C14.2547 17.0805 13.8555 17.4753 13.4607 17.8744C13.288 18.0494 13.2748 18.2288 13.4126 18.3698C13.5504 18.5109 13.7407 18.4967 13.908 18.3294C14.3068 17.9342 14.7031 17.5365 15.0968 17.1363C15.1666 17.0456 15.2278 16.9486 15.2794 16.8464L15.2783 16.8552ZM23.288 18.4639C23.3662 18.4236 23.4396 18.3744 23.5067 18.3174C23.8993 17.9335 24.2853 17.5431 24.6725 17.1548C24.7086 17.1222 24.7409 17.0855 24.7687 17.0455C24.8111 16.9862 24.8302 16.9135 24.8223 16.841C24.8144 16.7686 24.7802 16.7016 24.7261 16.6529C24.6791 16.6017 24.6154 16.569 24.5464 16.5606C24.4775 16.5522 24.4078 16.5686 24.3499 16.6069C24.2919 16.6436 24.2389 16.6877 24.1924 16.7382C23.8278 17.1027 23.4615 17.4673 23.0933 17.8318C23.0386 17.8825 22.9908 17.9403 22.9511 18.0035C22.8396 18.2047 23.0003 18.4617 23.2891 18.4551L23.288 18.4639Z" fill="#160F29"/>
<path d="M14.9817 19.4121C14.6766 19.4121 14.5278 19.1584 14.6471 18.9462C14.6792 18.8929 14.7186 18.8443 14.7641 18.8018C15.4596 18.1063 16.1548 17.4093 16.8496 16.7109C16.8962 16.6608 16.95 16.6181 17.0093 16.584C17.0688 16.5528 17.1368 16.5418 17.2032 16.5526C17.2695 16.5634 17.3305 16.5954 17.3771 16.6439C17.4237 16.6923 17.4533 16.7545 17.4615 16.8212C17.4697 16.8879 17.4561 16.9555 17.4226 17.0138C17.3922 17.0619 17.3554 17.1056 17.3133 17.1439C16.609 17.8504 15.9033 18.5558 15.196 19.2601C15.1301 19.3181 15.0582 19.369 14.9817 19.4121Z" fill="white"/>
<path d="M24.5792 19.4099C24.2741 19.4099 24.1188 19.1639 24.2347 18.9506C24.2744 18.8877 24.3222 18.8304 24.3769 18.78C25.0593 18.0954 25.7428 17.4115 26.4274 16.7284C26.4701 16.6829 26.517 16.6416 26.5674 16.6048C26.6288 16.5608 26.7041 16.5407 26.7792 16.5483C26.8544 16.556 26.9241 16.5909 26.9753 16.6464C27.0273 16.6975 27.0588 16.766 27.0636 16.8388C27.0684 16.9116 27.0464 16.9836 27.0016 17.0412C26.969 17.0863 26.9324 17.1284 26.8922 17.1669C26.2 17.8592 25.5088 18.5536 24.8143 19.2448C24.7416 19.3075 24.6628 19.3628 24.5792 19.4099Z" fill="white"/>
<path d="M15.2792 16.8465C15.2274 16.9455 15.1666 17.0396 15.0976 17.1276C14.7046 17.5285 14.3084 17.9263 13.9089 18.3207C13.7383 18.488 13.5491 18.4989 13.4135 18.3612C13.2778 18.2234 13.2888 18.0407 13.4616 17.8657C13.8564 17.4666 14.2555 17.0718 14.6514 16.6737C14.7608 16.5643 14.8997 16.4998 15.0386 16.5775C15.1325 16.6539 15.2137 16.7447 15.2792 16.8465Z" fill="white"/>
<path d="M23.289 18.4551C23.0003 18.4617 22.8395 18.2047 22.9533 17.9936C22.9929 17.9304 23.0407 17.8727 23.0954 17.8219C23.46 17.4574 23.8263 17.0929 24.1945 16.7283C24.2411 16.6779 24.294 16.6338 24.352 16.5971C24.4099 16.5588 24.4796 16.5423 24.5486 16.5507C24.6175 16.5592 24.6812 16.5919 24.7282 16.643C24.7823 16.6918 24.8166 16.7588 24.8245 16.8312C24.8323 16.9036 24.8132 16.9764 24.7709 17.0356C24.7431 17.0756 24.7108 17.1123 24.6746 17.145C24.2864 17.5398 23.9014 17.9247 23.5088 18.3053C23.4416 18.3636 23.3678 18.4139 23.289 18.4551Z" fill="white"/>
</svg>
