<svg width="71" height="72" viewBox="0 0 71 72" fill="none" xmlns="http://www.w3.org/2000/svg">
<g clip-path="url(#clip0_232_643)">
<path d="M32.7121 0.5H38.2564C38.3268 0.668321 38.4824 0.62393 38.6121 0.636877C40.1074 0.777794 41.5932 1.00631 43.0616 1.32126C61.6674 5.26108 74.0454 23.8152 70.3535 42.46C68.0454 54.0797 61.4155 62.5253 50.8418 67.8765C50.4602 68.0614 50.1009 68.3481 49.6285 68.3259C49.3747 67.5398 49.1376 66.7445 48.8616 65.9657C45.3309 55.9923 45.3216 46.0336 49.1191 36.1433C50.3565 32.9212 51.8977 29.8174 53.2667 26.6452C54.7264 23.2659 52.7647 19.5739 49.1672 18.9228C48.7449 18.847 48.6504 18.6898 48.656 18.3013C48.6763 17.0565 48.6708 15.8098 48.656 14.565C48.6288 12.1934 47.8055 9.89947 46.3181 8.05036C44.8306 6.20125 42.7649 4.90386 40.4515 4.36583C38.1249 3.83867 35.7593 4.14387 33.4123 4.10133C27.9902 3.69625 22.6182 8.0541 22.3329 14.073C22.2681 15.4528 22.3051 16.8382 22.3329 18.2218C22.3329 18.6398 22.2273 18.8285 21.792 18.9099C20.9599 19.0527 20.1716 19.3838 19.4874 19.8779C18.8032 20.3719 18.2413 21.0157 17.8447 21.7599C17.4482 22.5042 17.2274 23.3293 17.1995 24.1719C17.1715 25.0145 17.337 25.8523 17.6833 26.6212C18.5854 28.7095 19.5005 30.7941 20.462 32.8509C22.9053 38.0467 24.3521 43.494 24.6466 49.228C24.8949 53.9942 24.3139 58.7674 22.9294 63.3355C22.4237 65.0002 21.8754 66.652 21.3456 68.3111C21.0936 68.3814 20.8954 68.2316 20.6954 68.1262C9.33255 62.5568 2.51004 53.5858 0.3816 41.0949C0.253783 40.3366 0.307504 39.5486 0 38.8217V33.0248C0.168571 32.9563 0.12967 32.801 0.144489 32.6715C0.272307 31.4563 0.444584 30.2503 0.674285 29.048C3.44182 14.5335 15.5419 3.00632 30.2261 0.884734C31.0542 0.766354 31.91 0.794099 32.7121 0.5Z" fill="#B65C34"/>
<path d="M33.405 4.09581C35.7539 4.13835 38.1194 3.83315 40.4442 4.36031C42.7576 4.89834 44.8233 6.19573 46.3107 8.04484C47.7982 9.89395 48.6214 12.1879 48.6486 14.5595C48.6598 15.8043 48.6653 17.051 48.6486 18.2958C48.6486 18.6842 48.7376 18.8415 49.1599 18.9173C52.7573 19.5684 54.7172 23.2604 53.2593 26.6397C51.8904 29.8119 50.3492 32.9157 49.1117 36.1378C45.3143 46.0281 45.3235 55.9868 48.8543 65.9602C49.1303 66.739 49.3674 67.5343 49.6212 68.3204C49.171 68.8957 48.4486 68.8846 47.8484 69.1139C44.7606 70.3064 41.5072 71.0164 38.2028 71.2189C37.9564 71.2337 37.6804 71.18 37.5655 71.4945H36.8727C35.9602 71.2698 35.0066 71.2698 34.0941 71.4945H33.4013C33.3724 71.4068 33.314 71.3318 33.236 71.2822C33.158 71.2326 33.0652 71.2115 32.9734 71.2226C31.6637 71.2318 30.3892 70.9396 29.0981 70.7971C29.3389 69.1158 29.5612 67.4307 29.8242 65.7531C30.5503 61.1715 30.9096 56.5394 30.8986 51.9008C30.8986 50.2472 30.982 48.5936 30.7968 46.9381C30.7171 46.2315 30.6004 45.4732 30.9264 44.7684C32.2065 44.9997 33.4587 45.4029 34.7832 45.3234C36.5339 45.428 38.2895 45.2252 39.97 44.7241C43.5267 43.7141 45.2754 40.8989 44.703 37.2569C44.1806 33.9404 43.7378 30.611 43.2599 27.289C44.2695 27.1817 44.966 26.673 45.3198 25.7093C45.7996 24.4053 44.7789 22.4816 42.6801 22.772C42.3985 22.2023 42.4634 21.5642 42.3244 20.9649C42.0392 19.7367 40.9518 19.2798 39.9163 19.992C39.1921 20.5229 38.367 20.9006 37.4914 21.1018C35.9578 21.4169 34.3714 21.3674 32.8604 20.9575C32.1999 20.6389 31.5574 20.2845 30.9357 19.8958C30.0095 19.3076 28.9277 19.783 28.6739 20.8447C28.5624 21.3151 28.485 21.7929 28.4423 22.2745C28.4071 22.6666 28.2571 22.8164 27.8662 22.7165C28.0051 21.5106 28.3052 20.3619 29.0721 19.3871C29.7149 18.5659 29.8946 17.5985 29.9335 16.5978C29.965 15.7691 29.9465 14.9331 29.9335 14.1081C29.9056 11.962 30.2658 9.8284 30.9968 7.80997C31.4655 6.53184 32.0138 5.27776 33.1975 4.45095C33.3031 4.37696 33.3401 4.21789 33.405 4.09581ZM47.113 19.9938C48.5153 18.7249 48.5431 16.2538 47.1704 14.9997C46.4202 14.3356 45.5569 14.4041 44.8826 15.1846C43.8694 16.3462 43.8638 18.5566 44.8715 19.733C45.518 20.4858 46.309 20.5783 47.1204 20.0031L47.113 19.9938Z" fill="#FEF8F0"/>
<path d="M34.0977 71.5C35.0102 71.2752 35.9638 71.2752 36.8763 71.5H34.0977Z" fill="#FEFEFD"/>
<path d="M29.1021 70.8027C26.6368 70.351 24.2267 69.6379 21.9129 68.6756C21.7035 68.5905 21.459 68.5572 21.346 68.3186C21.8758 66.6539 22.4241 65.0077 22.9298 63.3429C24.3152 58.7725 24.8962 53.9967 24.647 49.228C24.3599 43.494 22.9058 38.0393 20.455 32.8436C19.4862 30.7867 18.5711 28.7021 17.6763 26.6138C17.33 25.8449 17.1645 25.0071 17.1925 24.1645C17.2205 23.3219 17.4412 22.4969 17.8378 21.7526C18.2343 21.0083 18.7962 20.3645 19.4804 19.8705C20.1646 19.3765 20.9529 19.0454 21.785 18.9025C22.2204 18.8211 22.3408 18.6324 22.3259 18.2144C22.3056 16.8309 22.2685 15.4399 22.3259 14.0656C22.6112 8.04672 27.9833 3.68887 33.4053 4.09395C33.3405 4.21048 33.3035 4.36956 33.2034 4.43984C32.0197 5.26665 31.4714 6.52074 31.0027 7.79886C30.2718 9.81729 29.9116 11.9509 29.9394 14.097C29.9394 14.9257 29.9635 15.7617 29.9394 16.5867C29.9005 17.5874 29.7209 18.5548 29.0781 19.376C28.3112 20.3545 28.0111 21.5032 27.8721 22.7054C27.8258 22.7147 27.7814 22.7276 27.7369 22.735C26.4402 22.9052 25.6418 23.6747 25.5381 24.8289C25.4399 25.9146 26.0938 26.8228 27.3312 27.2002C27.7239 27.3204 27.6869 27.5146 27.6424 27.8124C27.1682 31.0013 26.7347 34.1957 26.2253 37.379C25.903 39.3933 26.3253 41.1653 27.6295 42.7301C28.5038 43.7789 29.6894 44.3227 30.9379 44.7647C30.6119 45.4695 30.7286 46.2278 30.8082 46.9344C30.9935 48.5991 30.9046 50.2435 30.9101 51.8971C30.9211 56.5357 30.5618 61.1678 29.8357 65.7494C29.5653 67.4363 29.343 69.1213 29.1021 70.8027ZM25.8233 15.0182C25.1324 14.3985 24.3562 14.4041 23.6782 15.033C22.4593 16.165 22.4778 18.8248 23.7097 19.9328C24.4155 20.5654 25.1361 20.5543 25.8493 19.8995C27.1701 18.6602 27.1552 16.2223 25.8233 15.0182Z" fill="#F6E9DB"/>
<path d="M43.2669 27.2871C43.7449 30.6165 44.1931 33.9459 44.71 37.255C45.2824 40.897 43.5337 43.7122 39.977 44.7221C38.2965 45.2233 36.5409 45.4261 34.7902 45.3214C32.9952 44.552 32.4339 42.989 32.1523 41.241C31.9307 39.8342 31.8803 38.4057 32.0023 36.9868C32.1727 34.8578 32.2005 32.7177 32.3153 30.585C32.4858 27.374 32.6858 24.1648 32.8618 20.9537C34.3728 21.3637 35.9592 21.4131 37.4929 21.098C38.3684 20.8968 39.1936 20.5192 39.9177 19.9882C40.9569 19.2761 42.0443 19.733 42.3259 20.9611C42.4648 21.5604 42.4 22.1986 42.6816 22.7683C42.7279 24.2943 43.0613 25.7833 43.2669 27.2871ZM42.0091 29.7915C41.9665 29.2144 41.9832 28.5726 41.3626 28.3617C40.6846 28.1342 40.3104 28.6928 39.9955 29.1719C39.449 29.983 39.2214 30.967 39.3564 31.9353C39.4102 32.3348 39.5417 32.7177 39.9752 32.8601C40.4086 33.0026 40.6902 32.751 40.9495 32.4791C41.672 31.7152 41.9498 30.7829 42.0091 29.7915Z" fill="#F4CE33"/>
<path d="M32.8583 20.9574C32.6731 24.1685 32.4878 27.3777 32.3119 30.5887C32.197 32.7214 32.1692 34.8615 31.9988 36.9904C31.8768 38.4094 31.9272 39.8379 32.1488 41.2447C32.4304 42.9927 32.9917 44.5556 34.7867 45.3251C33.4622 45.412 32.21 45.0088 30.9299 44.7702C29.6814 44.33 28.4958 43.7862 27.6215 42.7356C26.3248 41.1707 25.895 39.4061 26.2174 37.3844C26.7268 34.2011 27.1602 31.0067 27.6345 27.8179C27.6789 27.5201 27.716 27.3259 27.3233 27.2056C26.0914 26.8357 25.4319 25.9201 25.5301 24.8343C25.6338 23.6801 26.4415 22.9107 27.7289 22.7405C27.7734 22.7405 27.8179 22.7202 27.8642 22.7109C28.2476 22.8108 28.4051 22.661 28.4403 22.2688C28.4829 21.7873 28.5603 21.3095 28.6718 20.839C28.9256 19.7773 30.013 19.302 30.9336 19.8901C31.5552 20.2808 32.1977 20.637 32.8583 20.9574ZM31.7061 31.8039C31.6116 30.6941 31.3597 29.7101 30.5483 28.961C29.9185 28.3783 29.348 28.5504 29.0979 29.3605C28.7719 30.4167 29.2961 32.1831 30.1501 32.9008C30.7836 33.4335 31.3856 33.2448 31.5987 32.4384C31.6458 32.229 31.6817 32.0172 31.7061 31.8039Z" fill="#F1B633"/>
<path d="M47.1207 20.0031C46.3094 20.582 45.5184 20.4895 44.8793 19.7423C43.8716 18.5659 43.8771 16.3555 44.8904 15.1939C45.5647 14.4207 46.4279 14.3523 47.1782 15.0089C47.055 15.1097 46.9404 15.2205 46.8355 15.34C45.8407 16.6736 45.9555 18.4678 47.1207 20.0031Z" fill="#3B4C4B"/>
<path d="M43.2675 27.2871C43.0619 25.7833 42.7285 24.2943 42.6914 22.7776C44.7902 22.4872 45.8109 24.4109 45.3311 25.7149C44.9736 26.6712 44.2771 27.1798 43.2675 27.2871Z" fill="#F1B634"/>
<path d="M47.1199 20.003C45.9548 18.4714 45.8418 16.6828 46.8347 15.3473C46.9396 15.2278 47.0542 15.117 47.1774 15.0162C48.55 16.2592 48.5222 18.7304 47.1199 20.003Z" fill="#536767"/>
<path d="M25.8488 19.8994C25.1357 20.5542 24.4151 20.5653 23.7093 19.9327C22.4774 18.8229 22.4589 16.1649 23.6778 15.0329C24.3558 14.404 25.132 14.3984 25.8229 15.0181C25.232 15.4361 25.006 16.0798 24.8967 16.7272C24.6837 17.9221 24.8245 19.0559 25.8488 19.8994Z" fill="#3B4C4A"/>
<path d="M25.8484 19.8995C24.824 19.056 24.6833 17.9222 24.8926 16.7273C25.0056 16.0799 25.2316 15.4325 25.8188 15.0182C27.1544 16.2223 27.1692 18.6602 25.8484 19.8995Z" fill="#536767"/>
<path d="M42.0098 29.7916C41.9486 30.783 41.6726 31.7153 40.9576 32.4718C40.6982 32.7437 40.3889 32.9804 39.9832 32.8528C39.5775 32.7252 39.4182 32.3349 39.3645 31.928C39.2273 30.9606 39.4522 29.9767 39.9962 29.1645C40.3111 28.6855 40.6853 28.1269 41.3633 28.3544C41.9838 28.5726 41.9672 29.2145 42.0098 29.7916Z" fill="#546865"/>
<path d="M31.706 31.8039C31.6816 32.0172 31.6458 32.229 31.5986 32.4384C31.3855 33.2448 30.7835 33.4335 30.15 32.9008C29.296 32.1831 28.7718 30.4167 29.0978 29.3605C29.3479 28.5504 29.9184 28.3783 30.5483 28.961C31.3596 29.7101 31.6115 30.7034 31.706 31.8039Z" fill="#546764"/>
</g>
<defs>
<clipPath id="clip0_232_643">
<rect width="71" height="71" fill="white" transform="translate(0 0.5)"/>
</clipPath>
</defs>
</svg>
