<svg width="17" height="17" viewBox="0 0 17 17" fill="none" xmlns="http://www.w3.org/2000/svg">
<path d="M16.219 15.8792L11.735 11.3952C12.8125 10.1016 13.3498 8.44236 13.2352 6.76269C13.1205 5.08301 12.3627 3.51219 11.1194 2.37702C9.87609 1.24184 8.24299 0.629705 6.55984 0.66795C4.87668 0.706194 3.27307 1.39187 2.08259 2.58235C0.892119 3.77283 0.206438 5.37644 0.168194 7.05959C0.129949 8.74274 0.742086 10.3758 1.87726 11.6192C3.01244 12.8625 4.58325 13.6203 6.26293 13.7349C7.94261 13.8496 9.60183 13.3123 10.8954 12.2347L15.3794 16.7187L16.219 15.8792ZM1.37524 7.21874C1.37524 6.16185 1.68864 5.12869 2.27582 4.24991C2.863 3.37114 3.69758 2.68622 4.67402 2.28176C5.65046 1.87731 6.72491 1.77148 7.7615 1.97767C8.79809 2.18386 9.75025 2.6928 10.4976 3.44014C11.2449 4.18748 11.7539 5.13964 11.9601 6.17623C12.1662 7.21281 12.0604 8.28726 11.656 9.26371C11.2515 10.2401 10.5666 11.0747 9.68781 11.6619C8.80904 12.2491 7.77588 12.5625 6.71899 12.5625C5.30222 12.5609 3.94393 11.9974 2.94212 10.9956C1.94031 9.9938 1.37681 8.63551 1.37524 7.21874Z" fill="#160F29" fill-opacity="0.5"/>
</svg>
