<svg width="40" height="33" viewBox="0 0 40 33" fill="none" xmlns="http://www.w3.org/2000/svg">
<path d="M36.7324 0H2.7066C1.98876 0 1.30033 0.282994 0.792745 0.786725C0.285159 1.29046 0 1.97366 0 2.68605V30.314C0 31.0263 0.285159 31.7095 0.792745 32.2133C1.30033 32.717 1.98876 33 2.7066 33H36.7324C37.4503 33 38.1387 32.717 38.6463 32.2133C39.1539 31.7095 39.439 31.0263 39.439 30.314V2.68605C39.439 1.97366 39.1539 1.29046 38.6463 0.786725C38.1387 0.282994 37.4503 0 36.7324 0ZM13.1463 14.9651C13.1463 13.6749 13.5319 12.4137 14.2541 11.341C14.9764 10.2682 16.003 9.43214 17.2041 8.93841C18.4052 8.44468 19.7268 8.3155 21.0019 8.5672C22.2769 8.8189 23.4482 9.44018 24.3674 10.3525C25.2867 11.2648 25.9128 12.4271 26.1664 13.6925C26.42 14.9579 26.2898 16.2695 25.7923 17.4615C25.2948 18.6534 24.4523 19.6722 23.3714 20.389C22.2904 21.1058 21.0196 21.4884 19.7195 21.4884C17.9762 21.4884 16.3043 20.8011 15.0716 19.5778C13.8389 18.3544 13.1463 16.6952 13.1463 14.9651ZM8.35373 30.6977C9.42265 28.6185 11.0498 26.8731 13.0556 25.654C15.0613 24.435 17.3675 23.7899 19.7195 23.7899C22.0715 23.7899 24.3777 24.435 26.3834 25.654C28.3892 26.8731 30.0164 28.6185 31.0853 30.6977H8.35373ZM37.1191 30.314C37.1191 30.4157 37.0783 30.5133 37.0058 30.5853C36.9333 30.6572 36.835 30.6977 36.7324 30.6977H33.6392C32.8183 28.75 31.5923 26.9963 30.0415 25.5512C28.4907 24.106 26.65 23.0021 24.6397 22.3115C26.2308 21.2628 27.4393 19.7336 28.0865 17.9502C28.7337 16.1669 28.7852 14.2241 28.2333 12.4095C27.6814 10.5948 26.5554 9.00475 25.0221 7.87455C23.4888 6.74435 21.6295 6.13409 19.7195 6.13409C17.8095 6.13409 15.9503 6.74435 14.4169 7.87455C12.8836 9.00475 11.7577 10.5948 11.2058 12.4095C10.6539 14.2241 10.7053 16.1669 11.3525 17.9502C11.9997 19.7336 13.2083 21.2628 14.7993 22.3115C12.789 23.0021 10.9483 24.106 9.3975 25.5512C7.8467 26.9963 6.62076 28.75 5.79986 30.6977H2.7066C2.60405 30.6977 2.5057 30.6572 2.43319 30.5853C2.36068 30.5133 2.31994 30.4157 2.31994 30.314V2.68605C2.31994 2.58428 2.36068 2.48668 2.43319 2.41471C2.5057 2.34275 2.60405 2.30233 2.7066 2.30233H36.7324C36.835 2.30233 36.9333 2.34275 37.0058 2.41471C37.0783 2.48668 37.1191 2.58428 37.1191 2.68605V30.314Z" fill="#160F29" fill-opacity="0.5"/>
</svg>
